<svg width="18" height="17" viewBox="0 0 18 17" fill="none" xmlns="http://www.w3.org/2000/svg">
<path fill-rule="evenodd" clip-rule="evenodd" d="M7.49994 0C11.5113 0 14.7632 3.24179 14.7632 7.24074C14.7632 8.8997 14.2034 10.4284 13.2621 11.6493L17.012 15.3877C17.382 15.7566 17.382 16.3546 17.012 16.7234C16.6705 17.0638 16.1331 17.09 15.7614 16.8019L15.6721 16.7234L11.9222 12.9851C10.6975 13.9236 9.16404 14.4815 7.49994 14.4815C3.4886 14.4815 0.236816 11.2397 0.236816 7.24074C0.236816 3.24179 3.4886 0 7.49994 0ZM7.49994 1.88889C4.53503 1.88889 2.13155 4.28499 2.13155 7.24074C2.13155 10.1965 4.53503 12.5926 7.49994 12.5926C8.96285 12.5926 10.2892 12.0092 11.2575 11.0632C11.2677 11.0485 11.2802 11.0353 11.2932 11.0223L11.3343 10.9866C12.2833 10.0213 12.8684 8.69914 12.8684 7.24074C12.8684 4.28499 10.4648 1.88889 7.49994 1.88889Z" fill="#211F20"/>
</svg>
