<svg xmlns="http://www.w3.org/2000/svg" viewBox="0 0 255.01 260.74"><defs><style>.cls-1{fill:#231f20;}</style></defs><title>Varlık 5</title><g id="katman_2" data-name="katman 2"><g id="Layer_1" data-name="Layer 1"><path class="cls-1" d="M92.77,187.06a8.09,8.09,0,0,0-4.35-14.93H88A11.61,11.61,0,0,0,70.78,157a15.19,15.19,0,0,0-28.94-4.65,11.62,11.62,0,0,0-22.56,3.9,11.42,11.42,0,0,0,.65,3.81,9.93,9.93,0,0,0-7.21,15.8,8.63,8.63,0,0,0-2.76-.44,8.91,8.91,0,0,0,0,17.82,9.08,9.08,0,0,0,2-.22,10.19,10.19,0,1,0,16.22,12.34,7.09,7.09,0,0,0,12,2l0,.09s8.92,7.29,9.73,17.15c.19,2.33.34,5.26.46,8.38.06,1.32.1,2.68.15,4,.23,7.67-1.38,19.62-1.36,21.74,1.5.76,3.26.8,6.17,1a13.66,13.66,0,0,0,5.13-.93c-.09-2-1.68-14.05-1.22-22.4.07-1.32.16-2.64.27-3.94a65.44,65.44,0,0,1,1.2-8.29A32.61,32.61,0,0,1,70.4,207a11.57,11.57,0,0,0,16.95-2.52,9.29,9.29,0,0,0,1.76.17,9.18,9.18,0,0,0,3.66-17.59ZM55.34,221.55a29,29,0,0,0-6.44-14.87A7.11,7.11,0,0,0,53,204.21a8.26,8.26,0,0,0,7.4,4.64A29,29,0,0,0,55.34,221.55Z"/><path class="cls-1" d="M55.83,260.74h-.54l-.83-.06c-2.53-.16-4.2-.27-5.74-1.05a1.06,1.06,0,0,1-.58-.93c0-.74.15-2.43.38-4.77a151.86,151.86,0,0,0,1-16.95c0-1.36-.08-2.71-.14-4-.13-3.41-.29-6.21-.46-8.33-.64-7.79-6.68-14-8.7-15.85a8.15,8.15,0,0,1-12.25-1.57A11.24,11.24,0,0,1,9.87,194.24,10,10,0,0,1,10,174.32c.24,0,.47,0,.7,0a10.85,10.85,0,0,1-.94-4.44,11,11,0,0,1,8.86-10.76A12.66,12.66,0,0,1,41.91,150a16.25,16.25,0,0,1,29.64,5.17,12.66,12.66,0,0,1,18.14,16,9.16,9.16,0,0,1,5,15.75,10.23,10.23,0,0,1-5.58,18.79,11,11,0,0,1-1.28-.08,12.63,12.63,0,0,1-17.37,2.75,32.06,32.06,0,0,0-8.69,16,64.14,64.14,0,0,0-1.18,8.17c-.11,1.23-.2,2.54-.27,3.89-.35,6.39.51,14.92,1,19.5.14,1.34.23,2.32.26,2.81a1,1,0,0,1-.67,1A15.31,15.31,0,0,1,55.83,260.74ZM50.27,258a17.4,17.4,0,0,0,4.32.57l.84.06a12.11,12.11,0,0,0,4-.6c0-.5-.11-1.17-.18-1.92-.47-4.64-1.34-13.27-1-19.82.08-1.38.17-2.71.28-4a66.68,66.68,0,0,1,1.22-8.43,33.8,33.8,0,0,1,10-17.69,1.07,1.07,0,0,1,1.36,0,10.52,10.52,0,0,0,15.41-2.29,1.05,1.05,0,0,1,1.07-.44,8.24,8.24,0,0,0,1.56.15A8.12,8.12,0,0,0,92.35,188a1,1,0,0,1-.63-.88,1.07,1.07,0,0,1,.48-1,7,7,0,0,0-3.78-13H88a1.05,1.05,0,0,1-1-1.61,10.56,10.56,0,0,0-15.62-13.81,1.09,1.09,0,0,1-1.07.16,1.07,1.07,0,0,1-.64-.87,14.15,14.15,0,0,0-26.95-4.32,1,1,0,0,1-1,.61,1,1,0,0,1-.94-.69,10.56,10.56,0,0,0-19.93,7,1,1,0,0,1-.11.92,1.06,1.06,0,0,1-.8.47,8.91,8.91,0,0,0-8.18,8.84,8.8,8.8,0,0,0,1.74,5.28,1.05,1.05,0,0,1,0,1.24,1,1,0,0,1-1.18.38,8.08,8.08,0,0,0-2.44-.38,7.86,7.86,0,0,0,0,15.72A8.51,8.51,0,0,0,11.7,192a1,1,0,0,1,1.05,1.68,9,9,0,0,0-2,5.7,9.14,9.14,0,0,0,16.55,5.36,1,1,0,0,1,1-.42,1,1,0,0,1,.85.65,6,6,0,0,0,10.23,1.68,1.05,1.05,0,0,1,1.69.1c1.28,1.1,9.15,8.18,9.94,17.73.17,2.15.33,5,.47,8.43,0,1.32.1,2.68.14,4a155.58,155.58,0,0,1-1,17.21C50.46,255.76,50.33,257.14,50.27,258Zm5.07-35.4h0a1,1,0,0,1-1-1,28.39,28.39,0,0,0-6.21-14.28,1.07,1.07,0,0,1-.17-1,1,1,0,0,1,.78-.67,6.08,6.08,0,0,0,3.44-2.11,1,1,0,0,1,.93-.38,1.06,1.06,0,0,1,.83.58,7.2,7.2,0,0,0,6.47,4.06,1,1,0,0,1,.92.56,1.07,1.07,0,0,1-.05,1.08,27.47,27.47,0,0,0-4.85,12.22A1,1,0,0,1,55.34,222.6Zm-4.69-15.38a32,32,0,0,1,4.71,9.31,32,32,0,0,1,3.19-6.8,9.32,9.32,0,0,1-5.81-3.81A8.12,8.12,0,0,1,50.65,207.22Z"/><path class="cls-1" d="M124.11,116.42a8.1,8.1,0,0,0-4.35-14.94l-.46,0a11.62,11.62,0,0,0-17.18-15.2,15.19,15.19,0,0,0-28.94-4.65,11.62,11.62,0,0,0-22.56,3.9,11.46,11.46,0,0,0,.65,3.81,9.92,9.92,0,0,0-7.21,15.8,8.91,8.91,0,1,0-2.76,17.39,9.15,9.15,0,0,0,2-.22,10.19,10.19,0,1,0,16.22,12.33,7.09,7.09,0,0,0,12,2l0,.09s8.91,7.29,9.73,17.15c.19,2.32.34,5.25.46,8.37.06,1.32.1,2.68.14,4,.24,7.66-1.37,19.61-1.35,21.74,1.5.76,3.26.79,6.17,1a13.67,13.67,0,0,0,5.13-.92c-.09-2-1.68-14.05-1.23-22.4.08-1.32.17-2.64.28-3.93a65.34,65.34,0,0,1,1.2-8.3,32.59,32.59,0,0,1,9.66-17.11,11.58,11.58,0,0,0,17-2.51,9.29,9.29,0,0,0,1.76.16,9.17,9.17,0,0,0,3.66-17.58ZM86.68,150.9A29,29,0,0,0,80.24,136a7.05,7.05,0,0,0,4-2.47,8.32,8.32,0,0,0,7.41,4.65A28.86,28.86,0,0,0,86.68,150.9Z"/><path class="cls-1" d="M87.17,190.08l-.54,0L85.8,190c-2.53-.17-4.2-.27-5.75-1.06a1,1,0,0,1-.57-.93c0-.74.15-2.43.38-4.77a151.82,151.82,0,0,0,1-16.94c0-1.36-.09-2.71-.14-4-.13-3.41-.29-6.21-.46-8.33-.64-7.78-6.69-14-8.7-15.84a8.15,8.15,0,0,1-12.25-1.57A11.24,11.24,0,0,1,41.2,123.6a10,10,0,0,1,.1-19.93c.24,0,.47,0,.7,0a10.86,10.86,0,0,1-.94-4.45,11,11,0,0,1,8.85-10.76,13.19,13.19,0,0,1-.34-2.94,12.67,12.67,0,0,1,23.68-6.26,16.25,16.25,0,0,1,29.64,5.17A12.68,12.68,0,0,1,121,100.52a9.15,9.15,0,0,1,5,15.74,10.23,10.23,0,0,1-5.57,18.8,11,11,0,0,1-1.28-.08,12.64,12.64,0,0,1-17.37,2.74,32.06,32.06,0,0,0-8.69,16,64,64,0,0,0-1.18,8.16c-.11,1.23-.2,2.54-.28,3.9-.34,6.38.52,14.9,1,19.48.13,1.35.23,2.32.25,2.81a1,1,0,0,1-.66,1A15.57,15.57,0,0,1,87.17,190.08Zm-5.56-2.75a16.94,16.94,0,0,0,4.32.57l.84.06a11.85,11.85,0,0,0,4-.6c0-.5-.11-1.16-.18-1.92-.47-4.64-1.34-13.26-1-19.81.08-1.38.17-2.71.28-4a66.68,66.68,0,0,1,1.22-8.43,33.85,33.85,0,0,1,10-17.68,1.06,1.06,0,0,1,1.36,0,10.52,10.52,0,0,0,15.41-2.29,1.05,1.05,0,0,1,1.07-.45,8.24,8.24,0,0,0,1.56.15,8.12,8.12,0,0,0,3.24-15.56,1.06,1.06,0,0,1-.63-.88,1,1,0,0,1,.48-1,7.06,7.06,0,0,0-3.78-13l-.4,0a1.06,1.06,0,0,1-1-1.62,10.56,10.56,0,0,0-15.62-13.82,1.07,1.07,0,0,1-1.07.17,1.08,1.08,0,0,1-.65-.87,14.14,14.14,0,0,0-26.94-4.33,1.05,1.05,0,0,1-1,.62,1.07,1.07,0,0,1-.95-.7,10.56,10.56,0,0,0-19.92,7,1.07,1.07,0,0,1-.11.92,1.06,1.06,0,0,1-.8.47,8.91,8.91,0,0,0-8.18,8.84,8.78,8.78,0,0,0,1.74,5.28,1.05,1.05,0,0,1-1.17,1.63,8.08,8.08,0,0,0-2.44-.38A7.86,7.86,0,1,0,43,121.3,1.06,1.06,0,0,1,44.09,123a9,9,0,0,0-2,5.7,9.14,9.14,0,0,0,16.55,5.36,1,1,0,0,1,1-.43,1.06,1.06,0,0,1,.85.66A6,6,0,0,0,70.7,136a1.08,1.08,0,0,1,.94-.37,1,1,0,0,1,.74.47c1.29,1.1,9.16,8.18,9.94,17.73.18,2.15.34,5,.47,8.42.06,1.32.1,2.68.15,4.05a153,153,0,0,1-1,17.2C81.8,185.09,81.66,186.48,81.61,187.33ZM86.68,152h0a1,1,0,0,1-1-1,28.37,28.37,0,0,0-6.21-14.27A1.06,1.06,0,0,1,80,135a6.09,6.09,0,0,0,3.45-2.1,1,1,0,0,1,.93-.38,1.06,1.06,0,0,1,.83.58,7.21,7.21,0,0,0,6.47,4.05,1.06,1.06,0,0,1,.87,1.64A27.47,27.47,0,0,0,87.72,151,1.05,1.05,0,0,1,86.68,152ZM82,136.58a31.52,31.52,0,0,1,4.7,9.3,32,32,0,0,1,3.2-6.8,9.28,9.28,0,0,1-5.81-3.81A8.44,8.44,0,0,1,82,136.58Z"/><path class="cls-1" d="M209.78,116.42a8.1,8.1,0,0,0-4.34-14.94l-.46,0A11.62,11.62,0,0,0,187.8,86.3a15.19,15.19,0,0,0-29-4.65,11.61,11.61,0,0,0-21.91,7.71,9.92,9.92,0,0,0-7.2,15.8,9,9,0,0,0-2.76-.44,8.92,8.92,0,0,0,0,17.83,9.06,9.06,0,0,0,2-.22,10.19,10.19,0,1,0,16.22,12.33,7.09,7.09,0,0,0,12,2l0,.09s8.91,7.29,9.72,17.15c.19,2.32.35,5.25.47,8.37.05,1.32.1,2.68.14,4,.24,7.66-1.37,19.61-1.35,21.74,1.5.76,3.25.79,6.17,1a13.71,13.71,0,0,0,5.13-.92c-.1-2-1.69-14.05-1.23-22.4.07-1.32.16-2.64.28-3.93a65.42,65.42,0,0,1,1.19-8.3,32.73,32.73,0,0,1,9.66-17.11,11.59,11.59,0,0,0,17-2.51,9.18,9.18,0,0,0,5.41-17.42ZM172.35,150.9A29,29,0,0,0,165.92,136a7.09,7.09,0,0,0,4-2.47,8.31,8.31,0,0,0,7.41,4.65A29,29,0,0,0,172.35,150.9Z"/><path class="cls-1" d="M172.85,190.08l-.55,0-.83-.05c-2.52-.17-4.2-.27-5.74-1.06a1.05,1.05,0,0,1-.58-.93c0-.74.16-2.43.38-4.77a151.78,151.78,0,0,0,1-16.94c0-1.36-.09-2.71-.14-4-.14-3.41-.29-6.21-.47-8.33-.64-7.78-6.68-14-8.69-15.84A8.15,8.15,0,0,1,145,136.54a11.24,11.24,0,0,1-18.08-12.94,10,10,0,0,1,.1-19.93q.34,0,.69,0a11,11,0,0,1,7.92-15.21,12.66,12.66,0,0,1,23.33-9.2,16.25,16.25,0,0,1,29.65,5.17,12.66,12.66,0,0,1,19.27,10.81,12.62,12.62,0,0,1-1.14,5.25,9.17,9.17,0,0,1,7.89,9.06,9.08,9.08,0,0,1-2.89,6.68,10.23,10.23,0,0,1-5.58,18.8,10.83,10.83,0,0,1-1.27-.08,12.64,12.64,0,0,1-17.37,2.74,32.13,32.13,0,0,0-8.7,16,62.38,62.38,0,0,0-1.17,8.16c-.11,1.23-.21,2.54-.28,3.9-.35,6.38.51,14.9,1,19.48.14,1.35.24,2.32.26,2.81a1.06,1.06,0,0,1-.67,1A15.45,15.45,0,0,1,172.85,190.08Zm-5.56-2.75a16.94,16.94,0,0,0,4.32.57l.84.06a11.92,11.92,0,0,0,4-.6c-.05-.5-.11-1.16-.19-1.92-.47-4.64-1.34-13.26-1-19.81.07-1.38.17-2.71.28-4a66.68,66.68,0,0,1,1.22-8.43,33.71,33.71,0,0,1,10-17.68,1,1,0,0,1,1.35,0,10.52,10.52,0,0,0,15.41-2.29,1.07,1.07,0,0,1,1.08-.45,8.12,8.12,0,0,0,4.79-15.41,1.08,1.08,0,0,1-.63-.88,1,1,0,0,1,.49-1,7.06,7.06,0,0,0-3.78-13l-.4,0a1.06,1.06,0,0,1-.95-1.62,10.56,10.56,0,0,0-15.62-13.82,1,1,0,0,1-1.72-.7,14.14,14.14,0,0,0-26.94-4.33,1.05,1.05,0,0,1-1.95-.08,10.56,10.56,0,0,0-19.92,7,1.08,1.08,0,0,1-.12.92,1,1,0,0,1-.8.47,8.87,8.87,0,0,0-6.44,14.12,1.05,1.05,0,0,1-1.17,1.63,8,8,0,0,0-2.43-.38,7.86,7.86,0,0,0,0,15.72,7.78,7.78,0,0,0,1.73-.2,1,1,0,0,1,1.12.47,1.05,1.05,0,0,1-.07,1.22,9,9,0,0,0-2,5.7,9.14,9.14,0,0,0,16.55,5.36,1.06,1.06,0,0,1,1-.43,1,1,0,0,1,.85.66A6,6,0,0,0,156.38,136a1.07,1.07,0,0,1,.93-.37,1.05,1.05,0,0,1,.75.47c1.29,1.1,9.15,8.18,9.94,17.73.18,2.15.33,5,.47,8.42.05,1.32.1,2.68.14,4.05a153,153,0,0,1-1,17.2C167.47,185.09,167.34,186.48,167.29,187.33ZM172.35,152h0a1.06,1.06,0,0,1-1-1,28.19,28.19,0,0,0-6.2-14.27,1.05,1.05,0,0,1-.18-1,1.07,1.07,0,0,1,.78-.68,6,6,0,0,0,3.44-2.1,1.05,1.05,0,0,1,1.76.2,7.23,7.23,0,0,0,6.48,4.05,1.07,1.07,0,0,1,.92.56,1,1,0,0,1-.06,1.08A27.33,27.33,0,0,0,173.4,151,1.06,1.06,0,0,1,172.35,152Zm-4.69-15.37a31.58,31.58,0,0,1,4.71,9.3,32.47,32.47,0,0,1,3.19-6.8,9.3,9.3,0,0,1-5.81-3.81A8.09,8.09,0,0,1,167.66,136.58Z"/><path class="cls-1" d="M164.45,44.76a8.1,8.1,0,0,0-4.34-14.94h-.47a11.62,11.62,0,0,0-17.18-15.2A15.19,15.19,0,0,0,113.52,10,11.62,11.62,0,0,0,91,13.88a11.42,11.42,0,0,0,.65,3.81,9.93,9.93,0,0,0-9.15,9.9,9.83,9.83,0,0,0,2,5.9,9,9,0,0,0-2.76-.43,8.91,8.91,0,1,0,0,17.82,9.06,9.06,0,0,0,2-.22A10.19,10.19,0,1,0,99.83,63a7.09,7.09,0,0,0,12,2l.05.09s8.91,7.29,9.72,17.15c.19,2.33.34,5.26.47,8.38,0,1.32.1,2.68.14,4,.23,7.67-1.37,19.62-1.35,21.74,1.49.76,3.25.8,6.16,1a14,14,0,0,0,5.14-.92c-.1-2-1.69-14.06-1.23-22.41.07-1.32.16-2.64.27-3.93a67.19,67.19,0,0,1,1.2-8.3,32.66,32.66,0,0,1,9.66-17.12,11.58,11.58,0,0,0,17-2.52,9.17,9.17,0,0,0,5.41-17.41ZM127,79.24a29,29,0,0,0-6.44-14.87,7.11,7.11,0,0,0,4-2.47A8.3,8.3,0,0,0,132,66.55,28.87,28.87,0,0,0,127,79.24Z"/><path class="cls-1" d="M127.51,118.43H127l-.83-.06c-2.53-.16-4.2-.27-5.74-1a1.08,1.08,0,0,1-.58-.93c0-.74.16-2.43.38-4.77a154.25,154.25,0,0,0,1-17c-.05-1.36-.09-2.71-.14-4-.14-3.41-.3-6.21-.47-8.33-.64-7.78-6.68-14-8.69-15.85a8.16,8.16,0,0,1-12.26-1.57A11.24,11.24,0,0,1,81.55,51.93,10,10,0,0,1,81.65,32q.34,0,.69,0a10.85,10.85,0,0,1-.94-4.44,11,11,0,0,1,8.86-10.77,12.66,12.66,0,0,1,23.33-9.19,16.25,16.25,0,0,1,29.65,5.17,12.66,12.66,0,0,1,18.13,16.05,9.16,9.16,0,0,1,5,15.75,10.22,10.22,0,0,1-5.58,18.79,9,9,0,0,1-1.27-.08,12.64,12.64,0,0,1-17.38,2.75,32.05,32.05,0,0,0-8.69,16,63.69,63.69,0,0,0-1.18,8.16c-.11,1.23-.2,2.54-.27,3.9-.35,6.38.51,14.91,1,19.49.14,1.34.24,2.32.26,2.81a1.06,1.06,0,0,1-.67,1A15.57,15.57,0,0,1,127.51,118.43ZM122,115.69a17.57,17.57,0,0,0,4.33.57l.83.06a12.21,12.21,0,0,0,4-.6c0-.5-.12-1.16-.19-1.92-.47-4.64-1.34-13.27-1-19.82.07-1.38.17-2.71.28-4a66.85,66.85,0,0,1,1.21-8.43,33.8,33.8,0,0,1,10-17.69,1.07,1.07,0,0,1,1.36,0,10.52,10.52,0,0,0,15.41-2.29,1.06,1.06,0,0,1,1.08-.44A8.12,8.12,0,0,0,164,45.72a1,1,0,0,1-.63-.88,1.07,1.07,0,0,1,.48-1,7,7,0,0,0-3.77-13h-.41a1.05,1.05,0,0,1-1-.52,1,1,0,0,1,0-1.1,10.56,10.56,0,0,0-15.63-13.81,1.07,1.07,0,0,1-1.06.16,1.06,1.06,0,0,1-.65-.87,14.14,14.14,0,0,0-26.94-4.33,1.06,1.06,0,0,1-1,.62,1,1,0,0,1-.94-.7,10.57,10.57,0,0,0-19.93,7,1,1,0,0,1-.91,1.39,8.91,8.91,0,0,0-8.18,8.85,8.8,8.8,0,0,0,1.74,5.28,1,1,0,0,1-1.17,1.62,8.06,8.06,0,0,0-2.43-.38,7.86,7.86,0,0,0,0,15.72,8.49,8.49,0,0,0,1.73-.19,1,1,0,0,1,1.05,1.68,9,9,0,0,0-2,5.71A9.14,9.14,0,0,0,99,62.38a1,1,0,0,1,1-.42,1.06,1.06,0,0,1,.85.66A6,6,0,0,0,111,64.29a1.09,1.09,0,0,1,.94-.37,1.05,1.05,0,0,1,.75.47c1.29,1.1,9.15,8.18,9.94,17.73.17,2.15.33,5,.47,8.43,0,1.32.1,2.68.14,4a155.58,155.58,0,0,1-1,17.21C122.14,113.45,122,114.83,122,115.69ZM127,80.29h0a1,1,0,0,1-1-1A28.28,28.28,0,0,0,119.76,65a1.07,1.07,0,0,1-.17-1,1,1,0,0,1,.78-.67,6.08,6.08,0,0,0,3.44-2.11,1.07,1.07,0,0,1,.93-.38,1.06,1.06,0,0,1,.83.58A7.2,7.2,0,0,0,132,65.49a1,1,0,0,1,.92.56,1,1,0,0,1-.05,1.08,27.33,27.33,0,0,0-4.84,12.22A1.05,1.05,0,0,1,127,80.29Zm-4.69-15.38A32,32,0,0,1,127,74.22a32,32,0,0,1,3.19-6.8,9.28,9.28,0,0,1-5.81-3.81A8,8,0,0,1,122.33,64.91Z"/><path class="cls-1" d="M170.11,187.06a8.09,8.09,0,0,0-4.35-14.93h-.46A11.61,11.61,0,0,0,148.12,157a15.19,15.19,0,0,0-28.94-4.65,11.62,11.62,0,0,0-22.56,3.9,11.42,11.42,0,0,0,.65,3.81,9.93,9.93,0,0,0-7.21,15.8,8.63,8.63,0,0,0-2.76-.44,8.91,8.91,0,0,0,0,17.82,9.08,9.08,0,0,0,2-.22,10.19,10.19,0,1,0,16.22,12.34,7.09,7.09,0,0,0,12,2l0,.09s8.92,7.29,9.73,17.15c.19,2.33.34,5.26.46,8.38.06,1.32.1,2.68.15,4,.23,7.67-1.38,19.62-1.36,21.74,1.5.76,3.26.8,6.17,1a13.66,13.66,0,0,0,5.13-.93c-.09-2-1.68-14.05-1.22-22.4.07-1.32.16-2.64.27-3.94a65.44,65.44,0,0,1,1.2-8.29A32.61,32.61,0,0,1,147.74,207a11.57,11.57,0,0,0,16.95-2.52,9.29,9.29,0,0,0,1.76.17,9.18,9.18,0,0,0,3.66-17.59Zm-37.43,34.49a29,29,0,0,0-6.44-14.87,7.11,7.11,0,0,0,4-2.47,8.26,8.26,0,0,0,7.4,4.64A29,29,0,0,0,132.68,221.55Z"/><path class="cls-1" d="M133.17,260.74h-.54l-.83-.06c-2.53-.16-4.2-.27-5.74-1.05a1.06,1.06,0,0,1-.58-.93c0-.74.15-2.43.38-4.77a151.86,151.86,0,0,0,1-16.95c0-1.36-.08-2.71-.14-4-.13-3.41-.29-6.21-.46-8.33-.64-7.79-6.69-14-8.7-15.85a8.15,8.15,0,0,1-12.25-1.57,11.24,11.24,0,0,1-18.07-12.95,10,10,0,0,1,.09-19.92c.24,0,.47,0,.7,0a10.85,10.85,0,0,1-.94-4.44,11,11,0,0,1,8.86-10.76A12.66,12.66,0,0,1,119.25,150a16.25,16.25,0,0,1,29.64,5.17,12.66,12.66,0,0,1,18.14,16,9.16,9.16,0,0,1,5,15.75,10.23,10.23,0,0,1-5.58,18.79,11,11,0,0,1-1.28-.08,12.63,12.63,0,0,1-17.37,2.75,32.06,32.06,0,0,0-8.69,16,64.14,64.14,0,0,0-1.18,8.17c-.11,1.23-.2,2.54-.27,3.89-.35,6.39.51,14.92,1,19.5.14,1.34.23,2.32.26,2.81a1,1,0,0,1-.67,1A15.31,15.31,0,0,1,133.17,260.74ZM127.61,258a17.4,17.4,0,0,0,4.32.57l.84.06a12.11,12.11,0,0,0,3.95-.6c0-.5-.11-1.17-.18-1.92-.47-4.64-1.34-13.27-1-19.82.08-1.38.17-2.71.28-4a66.68,66.68,0,0,1,1.22-8.43,33.8,33.8,0,0,1,10-17.69,1.07,1.07,0,0,1,1.36,0,10.52,10.52,0,0,0,15.41-2.29,1.05,1.05,0,0,1,1.07-.44,8.24,8.24,0,0,0,1.56.15A8.12,8.12,0,0,0,169.69,188a1.05,1.05,0,0,1-.15-1.85,7,7,0,0,0-3.78-13h-.4a1.05,1.05,0,0,1-1-1.61,10.56,10.56,0,0,0-15.62-13.81,1.09,1.09,0,0,1-1.07.16,1.07,1.07,0,0,1-.64-.87,14.15,14.15,0,0,0-27-4.32,1,1,0,0,1-1,.61,1,1,0,0,1-.94-.69,10.56,10.56,0,0,0-19.93,7,1,1,0,0,1-.11.92,1.06,1.06,0,0,1-.8.47,8.91,8.91,0,0,0-8.18,8.84,8.8,8.8,0,0,0,1.74,5.28,1.05,1.05,0,0,1,0,1.24,1,1,0,0,1-1.18.38,8.08,8.08,0,0,0-2.44-.38,7.86,7.86,0,0,0,0,15.72A8.58,8.58,0,0,0,89,192a1,1,0,0,1,1,1.68,9,9,0,0,0-2,5.7,9.14,9.14,0,0,0,16.55,5.36,1,1,0,0,1,1-.42,1,1,0,0,1,.85.65,6,6,0,0,0,10.23,1.68,1.05,1.05,0,0,1,1.69.1c1.28,1.1,9.15,8.18,9.94,17.73.17,2.15.33,5,.47,8.43,0,1.32.1,2.68.14,4a155.58,155.58,0,0,1-1,17.21C127.8,255.76,127.67,257.14,127.61,258Zm5.07-35.4h0a1,1,0,0,1-1-1,28.39,28.39,0,0,0-6.21-14.28,1.07,1.07,0,0,1-.17-1,1,1,0,0,1,.78-.67,6.08,6.08,0,0,0,3.44-2.11,1,1,0,0,1,.93-.38,1.06,1.06,0,0,1,.83.58,7.2,7.2,0,0,0,6.47,4.06,1,1,0,0,1,.92.56,1.07,1.07,0,0,1-.05,1.08,27.47,27.47,0,0,0-4.85,12.22A1,1,0,0,1,132.68,222.6ZM128,207.22a32,32,0,0,1,4.71,9.31,32,32,0,0,1,3.19-6.8,9.32,9.32,0,0,1-5.81-3.81A8.12,8.12,0,0,1,128,207.22Z"/><path class="cls-1" d="M248.44,187.06a8.09,8.09,0,0,0-4.34-14.93h-.47A11.61,11.61,0,0,0,226.46,157a15.2,15.2,0,0,0-29-4.65A11.61,11.61,0,0,0,175,156.2a11.41,11.41,0,0,0,.64,3.81,9.92,9.92,0,0,0-7.2,15.8,8.72,8.72,0,0,0-2.76-.44,8.91,8.91,0,1,0,0,17.82,9.06,9.06,0,0,0,2-.22,10.19,10.19,0,1,0,16.22,12.34,7.09,7.09,0,0,0,12,2l0,.09s8.91,7.29,9.72,17.15c.19,2.33.34,5.26.47,8.38,0,1.32.1,2.68.14,4,.23,7.67-1.37,19.62-1.35,21.74,1.49.76,3.25.8,6.16,1a13.76,13.76,0,0,0,5.14-.93c-.1-2-1.69-14.05-1.23-22.4.07-1.32.16-2.64.27-3.94a67.3,67.3,0,0,1,1.2-8.29A32.61,32.61,0,0,1,226.07,207a11.58,11.58,0,0,0,17-2.52,9.18,9.18,0,0,0,5.41-17.42ZM211,221.55a28.94,28.94,0,0,0-6.44-14.87,7.11,7.11,0,0,0,4.05-2.47,8.27,8.27,0,0,0,7.41,4.64A29,29,0,0,0,211,221.55Z"/><path class="cls-1" d="M211.5,260.74H211l-.83-.06c-2.53-.16-4.2-.27-5.74-1.05a1.08,1.08,0,0,1-.58-.93c0-.74.16-2.43.38-4.77a154.25,154.25,0,0,0,1-16.95c0-1.36-.09-2.71-.14-4-.14-3.41-.3-6.21-.47-8.33-.64-7.79-6.68-14-8.69-15.85a8.16,8.16,0,0,1-12.26-1.57,11.24,11.24,0,0,1-18.07-12.95,10,10,0,0,1,.1-19.92c.23,0,.46,0,.69,0a10.85,10.85,0,0,1-.94-4.44,11,11,0,0,1,8.86-10.76A12.66,12.66,0,0,1,197.58,150a16.25,16.25,0,0,1,29.65,5.17,12.66,12.66,0,0,1,18.13,16,9.16,9.16,0,0,1,5,15.75,10.22,10.22,0,0,1-5.58,18.79,10.83,10.83,0,0,1-1.27-.08,12.64,12.64,0,0,1-17.38,2.75,32.06,32.06,0,0,0-8.69,16,64.14,64.14,0,0,0-1.18,8.17c-.11,1.23-.2,2.54-.27,3.89-.35,6.39.51,14.92,1,19.5.14,1.34.24,2.32.26,2.81a1,1,0,0,1-.67,1A15.31,15.31,0,0,1,211.5,260.74ZM205.94,258a17.57,17.57,0,0,0,4.33.57l.83.06a12.21,12.21,0,0,0,4-.6c-.05-.5-.12-1.17-.19-1.92-.47-4.64-1.34-13.27-1-19.82.07-1.38.17-2.71.28-4a68.74,68.74,0,0,1,1.21-8.43,33.8,33.8,0,0,1,10-17.69,1.07,1.07,0,0,1,1.36,0,10.52,10.52,0,0,0,15.41-2.29,1.06,1.06,0,0,1,1.08-.44A8.12,8.12,0,0,0,248,188a1,1,0,0,1-.14-1.85,7.05,7.05,0,0,0-3.78-13h-.41a1,1,0,0,1-1-.52,1,1,0,0,1,0-1.09,10.56,10.56,0,0,0-15.63-13.81,1.07,1.07,0,0,1-1.06.16,1.06,1.06,0,0,1-.65-.87,14.14,14.14,0,0,0-26.94-4.32,1.07,1.07,0,0,1-1,.61,1,1,0,0,1-.94-.69A10.56,10.56,0,0,0,176,156.2a10.8,10.8,0,0,0,.58,3.47,1,1,0,0,1-.91,1.39,8.91,8.91,0,0,0-8.18,8.84,8.8,8.8,0,0,0,1.74,5.28,1,1,0,0,1-1.17,1.62,8.06,8.06,0,0,0-2.43-.38,7.86,7.86,0,1,0,0,15.72,8.49,8.49,0,0,0,1.73-.19,1,1,0,0,1,1,1.68,9,9,0,0,0-2,5.7A9.14,9.14,0,0,0,183,204.69a1.06,1.06,0,0,1,1.83.23A6,6,0,0,0,195,206.6a1,1,0,0,1,.93-.37,1.05,1.05,0,0,1,.75.47c1.29,1.1,9.15,8.18,9.94,17.73.17,2.15.33,5,.47,8.43.05,1.32.1,2.68.14,4a155.58,155.58,0,0,1-1,17.21C206.13,255.76,206,257.14,205.94,258ZM211,222.6h0a1,1,0,0,1-1-1,28.17,28.17,0,0,0-6.21-14.28,1.05,1.05,0,0,1,.61-1.69,6,6,0,0,0,3.44-2.11,1.05,1.05,0,0,1,1.76.2A7.2,7.2,0,0,0,216,207.8a1.07,1.07,0,0,1,.93.56,1,1,0,0,1-.06,1.08,27.33,27.33,0,0,0-4.84,12.22A1.05,1.05,0,0,1,211,222.6Zm-4.69-15.38a32,32,0,0,1,4.71,9.31,32,32,0,0,1,3.19-6.8,9.32,9.32,0,0,1-5.81-3.81A8,8,0,0,1,206.32,207.22Z"/></g></g></svg>