<svg width="19" height="19" viewBox="0 0 19 19" fill="none" xmlns="http://www.w3.org/2000/svg">
<path d="M12.1578 9.70532C13.8615 8.4992 14.5887 6.3292 13.9559 4.34004C13.323 2.35089 11.4756 1 9.38824 1C7.30084 1 5.45346 2.35089 4.82062 4.34004C4.18777 6.3292 4.91497 8.4992 6.61864 9.70532C3.29308 10.6745 1.0048 13.7204 1 17.1843C1 17.5152 1.26826 17.7834 1.59915 17.7834H17.1772C17.5081 17.7834 17.7764 17.5152 17.7764 17.1843C17.7716 13.7204 15.4834 10.6745 12.1578 9.70532ZM5.79322 5.80037C5.79322 3.81495 7.4027 2.20544 9.38813 2.20544C11.3735 2.20544 12.983 3.81495 12.983 5.80037C12.983 7.78579 11.3735 9.39529 9.38813 9.39529C7.40364 9.39303 5.79548 7.78485 5.79322 5.80037ZM2.22532 16.5851C2.5391 13.1933 5.38267 10.5976 8.78897 10.5936H9.98728C13.3936 10.5976 16.2373 13.1933 16.551 16.5851H2.22532Z" fill="#211F20" stroke="#211F20" stroke-width="0.5"/>
</svg>
