<?xml version="1.0" encoding="utf-8"?>
<!-- Generator: Adobe Illustrator 23.1.0, SVG Export Plug-In . SVG Version: 6.00 Build 0)  -->
<svg version="1.1" id="Слой_1" xmlns="http://www.w3.org/2000/svg" xmlns:xlink="http://www.w3.org/1999/xlink" x="0px" y="0px"
	 viewBox="0 0 63.1 72.9" style="enable-background:new 0 0 63.1 72.9;" xml:space="preserve">
<style type="text/css">
	.st0{fill:#9BBA58;}
	.st1{fill:#779156;}
	.st2{fill:#FFFFFF;}
	.st3{fill:none;}
</style>
<g>
	<polygon class="st0" points="0,18.2 31.6,0 63.2,18.2 63.2,54.7 31.6,73 0,54.7 	"/>
	<path class="st1" d="M31.6,13.8c-13.2,0-23.9,10.7-23.9,23.9s10.7,23.9,23.9,23.9s23.9-10.7,23.9-23.9S44.8,13.8,31.6,13.8z"/>
	<g>
		<g>
			<path class="st2" d="M31.6,64.3c-14.7,0-26.7-12-26.7-26.7s12-26.7,26.7-26.7s26.7,12,26.7,26.7C58.3,52.3,46.3,64.3,31.6,64.3z
				 M31.6,14.7C19,14.7,8.7,25,8.7,37.6S19,60.5,31.6,60.5s22.9-10.3,22.9-22.9S44.2,14.7,31.6,14.7z"/>
		</g>
	</g>
	<polygon class="st2" points="31.6,31.5 29.1,49.2 17.1,37.2 29.1,56.3 29.1,71.5 31.6,73 34.1,71.5 34.1,56.3 46.1,37.2 34.1,49.2 
			"/>
</g>
<rect x="3.2" y="74.6" class="st3" width="63.1" height="12.4"/>
</svg>
