<?xml version="1.0" encoding="utf-8"?>
<!-- Generator: Adobe Illustrator 22.0.1, SVG Export Plug-In . SVG Version: 6.00 Build 0)  -->
<svg version="1.1" id="Слой_1" xmlns="http://www.w3.org/2000/svg" xmlns:xlink="http://www.w3.org/1999/xlink" x="0px" y="0px"
	 viewBox="0 0 374 444" style="enable-background:new 0 0 374 444;" xml:space="preserve">
<style type="text/css">
	.st0{fill:#9BBA58;}
	.st1{fill:#FFFFFF;}
	.st2{fill:#779156;}
</style>
<g>
	<g>
		<g>
			<g>
				<path class="st0" d="M150,124.9c-4.2,7.3-4.5,16.6,0,24.5c4.5,7.9,12.8,12.2,21.2,12.3c4.2-7.3,4.5-16.6,0-24.5
					C166.7,129.3,158.4,124.9,150,124.9z"/>
				<path class="st0" d="M113,189c4.2,7.3,12.1,12.2,21.2,12.2c9.1,0,17-4.9,21.2-12.2c-4.2-7.3-12.1-12.3-21.2-12.3
					C125.1,176.7,117.2,181.7,113,189z"/>
				<path class="st0" d="M150,253.1c8.4,0,16.7-4.4,21.2-12.2c4.5-7.9,4.2-17.2,0-24.5c-8.5,0-16.7,4.4-21.2,12.2
					C145.4,236.4,145.8,245.8,150,253.1z"/>
				<path class="st0" d="M224,253.1c4.2-7.3,4.5-16.6,0-24.5c-4.5-7.9-12.8-12.2-21.2-12.2c-4.2,7.3-4.6,16.6,0,24.5
					C207.3,248.7,215.5,253.1,224,253.1z"/>
				<path class="st0" d="M261,189c-4.2-7.3-12.1-12.2-21.2-12.2c-9.1,0-17,4.9-21.2,12.2c4.2,7.3,12.1,12.3,21.2,12.3
					C248.8,201.2,256.8,196.3,261,189z"/>
				<path class="st0" d="M224,124.9c-8.4,0-16.7,4.4-21.2,12.2c-4.6,7.9-4.2,17.2,0,24.5c8.4,0,16.7-4.4,21.2-12.2
					C228.5,141.5,228.2,132.2,224,124.9z"/>
			</g>
			<g>
				<path class="st1" d="M187,376c23.1-13.4,38.7-38.4,38.7-67.1c0-28.7-15.6-53.7-38.7-67.1c-23.2,13.4-38.7,38.4-38.7,67.1
					C148.3,337.5,163.8,362.5,187,376z"/>
				<path class="st2" d="M187,2c-23.1,13.4-38.7,38.4-38.7,67.1c0,28.7,15.6,53.7,38.7,67.1c23.1-13.4,38.7-38.4,38.7-67.1
					S210.1,15.4,187,2z"/>
				<path class="st2" d="M25,95.5c0,26.8,13.9,52.8,38.7,67.1s54.3,13.4,77.5,0c0-26.8-13.9-52.8-38.7-67.1S48.2,82.1,25,95.5z"/>
				<path class="st2" d="M25.1,282.5c23.2,13.4,52.6,14.3,77.5,0c24.8-14.3,38.7-40.4,38.7-67.1c-23.2-13.4-52.7-14.3-77.5,0
					C39,229.7,25.1,255.7,25.1,282.5z"/>
				<path class="st2" d="M348.9,282.5c0-26.8-13.9-52.8-38.7-67.1c-24.8-14.3-54.3-13.3-77.5,0c0,26.8,13.9,52.8,38.7,67.1
					S325.7,295.8,348.9,282.5z"/>
				<path class="st2" d="M348.9,95.5c-23.2-13.3-52.6-14.3-77.5,0s-38.7,40.4-38.7,67.1c23.2,13.4,52.6,14.3,77.5,0
					C335,148.2,348.9,122.2,348.9,95.5z"/>
			</g>
			<g>
				<path class="st0" d="M93.5,27c-6.7,11.6-7.2,26.3,0,38.7c7.2,12.4,20.2,19.4,33.5,19.4c6.7-11.6,7.2-26.3,0-38.7
					C119.9,34,106.9,27.1,93.5,27z"/>
				<path class="st0" d="M0,189c6.7,11.6,19.2,19.4,33.5,19.4s26.9-7.8,33.5-19.4c-6.7-11.6-19.2-19.4-33.5-19.4S6.7,177.4,0,189z"
					/>
				<path class="st0" d="M93.5,350.9c13.4,0,26.4-7,33.5-19.4c7.2-12.4,6.7-27.1,0-38.7c-13.4,0-26.4,7-33.6,19.4
					C86.3,324.6,86.8,339.3,93.5,350.9z"/>
				<path class="st0" d="M280.5,350.9c6.7-11.6,7.2-26.3,0-38.7c-7.2-12.4-20.2-19.4-33.6-19.4c-6.7,11.6-7.2,26.3,0,38.8
					C254.1,344,267.1,350.9,280.5,350.9z"/>
				<path class="st0" d="M374,189c-6.7-11.6-19.2-19.4-33.5-19.4c-14.4,0-26.9,7.8-33.5,19.4c6.7,11.6,19.2,19.4,33.6,19.4
					C354.8,208.4,367.3,200.6,374,189z"/>
				<path class="st0" d="M280.5,27c-13.4,0-26.4,7-33.5,19.4c-7.2,12.4-6.7,27.2,0,38.7c13.4,0,26.4-6.9,33.6-19.4
					C287.6,53.4,287.1,38.6,280.5,27z"/>
			</g>
		</g>
		<g>
			<g>
				<path class="st2" d="M128.6,443c-3.5,0-6.3-2.8-6.3-6.3s2.8-6.3,6.3-6.3c16.5,0,29.9-13.4,29.9-29.9V273.3
					c0-3.5,2.8-6.3,6.3-6.3s6.3,2.8,6.3,6.3v127.2C171,423.9,152,443,128.6,443z"/>
			</g>
			<g>
				<path class="st2" d="M245.4,443c-23.4,0-42.5-19.1-42.5-42.5V273.3c0-3.5,2.8-6.3,6.3-6.3s6.3,2.8,6.3,6.3v127.2
					c0,16.5,13.4,29.9,29.9,29.9c3.5,0,6.3,2.8,6.3,6.3S248.9,443,245.4,443z"/>
			</g>
			<g>
				<path class="st2" d="M187,443c-3.5,0-6.3-2.8-6.3-6.3V273.3c0-3.5,2.8-6.3,6.3-6.3s6.3,2.8,6.3,6.3v163.4
					C193.3,440.2,190.5,443,187,443z"/>
			</g>
		</g>
	</g>
</g>
</svg>
