<?xml version="1.0" encoding="utf-8"?>
<!-- Generator: Adobe Illustrator 23.1.0, SVG Export Plug-In . SVG Version: 6.00 Build 0)  -->
<svg version="1.1" id="Слой_1" xmlns="http://www.w3.org/2000/svg" xmlns:xlink="http://www.w3.org/1999/xlink" x="0px" y="0px"
	 viewBox="0 0 135.7 135.2" style="enable-background:new 0 0 135.7 135.2;" xml:space="preserve">
<style type="text/css">
	.st0{fill:#5E7ABA;}
	.st1{fill:#FFFFFF;}
</style>
<g>
	<path class="st0" d="M135.4,67.9c0-37.3-30.2-67.5-67.5-67.5S0.4,30.6,0.4,67.9c0,33.7,24.7,61.6,57,66.7V87.4H40.2V67.9h17.1V53
		c0-16.9,10.1-26.3,25.5-26.3c7.4,0,15.1,1.3,15.1,1.3v16.6h-8.5c-8.4,0-11,5.2-11,10.5v12.7h18.7l-3,19.5H78.5v47.2
		C110.7,129.5,135.4,101.6,135.4,67.9z"/>
	<path class="st1" d="M94.2,87.4l3-19.5H78.5V55.2c0-5.3,2.6-10.5,11-10.5H98V28.1c0,0-7.7-1.3-15.1-1.3c-15.4,0-25.5,9.3-25.5,26.3
		v14.9H40.2v19.5h17.1v47.2c3.4,0.5,7,0.8,10.5,0.8c3.6,0,7.1-0.3,10.5-0.8V87.4H94.2z"/>
</g>
</svg>
