<?xml version="1.0" encoding="utf-8"?>
<!-- Generator: Adobe Illustrator 23.1.0, SVG Export Plug-In . SVG Version: 6.00 Build 0)  -->
<svg version="1.1" id="Слой_1" xmlns="http://www.w3.org/2000/svg" xmlns:xlink="http://www.w3.org/1999/xlink" x="0px" y="0px"
	 viewBox="0 0 135.7 135.7" style="enable-background:new 0 0 135.7 135.7;" xml:space="preserve">
<style type="text/css">
	.st0{fill:#52AC62;}
	.st1{fill:#FFFFFF;}
	.st2{fill-rule:evenodd;clip-rule:evenodd;fill:#FFFFFF;}
</style>
<g>
	
		<ellipse transform="matrix(0.1586 -0.9873 0.9873 0.1586 -10.3953 124.0689)" class="st0" cx="67.6" cy="68.1" rx="67.3" ry="67.3"/>
	<path class="st1" d="M31.2,106.2l5.6-20.9C33.7,79.5,32,73.1,32,66.6C32,45.3,49.3,28,70.7,28c21.3,0,38.7,17.3,38.7,38.7
		c0,21.3-17.3,38.7-38.7,38.7c-6.4,0-12.7-1.6-18.4-4.7L31.2,106.2z M53.3,92.7l1.3,0.8c4.9,2.9,10.4,4.4,16,4.4
		C87.9,98,102,83.9,102,66.6c0-17.3-14.1-31.3-31.3-31.3c-17.3,0-31.3,14.1-31.3,31.3c0,5.7,1.6,11.3,4.6,16.3l0.8,1.3l-3.1,11.7
		L53.3,92.7z"/>
	<path class="st2" d="M85,72c-1.6-1-3.7-2-5.5-1.2c-1.4,0.6-2.4,2.8-3.3,4c-0.5,0.6-1,0.7-1.8,0.4C69,73,64.9,69.4,61.9,64.4
		c-0.5-0.8-0.4-1.4,0.2-2.1c0.9-1.1,2-2.3,2.3-3.7c0.2-1.4-0.4-3.1-1-4.4c-0.8-1.6-1.6-3.9-3.2-4.9c-1.5-0.8-3.5-0.4-4.8,0.7
		C53,52,51.9,54.9,52,57.8c0,0.8,0.1,1.7,0.3,2.4c0.5,1.9,1.4,3.7,2.3,5.4c0.8,1.3,1.6,2.5,2.5,3.7c2.9,3.9,6.5,7.3,10.6,9.9
		c2.1,1.3,4.3,2.4,6.6,3.2c2.6,0.9,4.9,1.8,7.7,1.2c2.9-0.6,5.8-2.4,7-5.2c0.3-0.8,0.5-1.8,0.3-2.7C89,74,86.5,72.9,85,72z"/>
</g>
</svg>
