<?xml version="1.0" encoding="utf-8"?>
<!-- Generator: Adobe Illustrator 23.1.0, SVG Export Plug-In . SVG Version: 6.00 Build 0)  -->
<svg version="1.1" id="Слой_1" xmlns="http://www.w3.org/2000/svg" xmlns:xlink="http://www.w3.org/1999/xlink" x="0px" y="0px"
	 viewBox="0 0 63 56" style="enable-background:new 0 0 63 56;" xml:space="preserve">
<style type="text/css">
	.st0{fill:#CBC2BE;}
	.st1{fill:#FDF9F4;}
	.st2{fill:#767676;}
	.st3{fill:#B5A9A3;}
	.st4{fill:#664A3B;}
	.st5{fill:#87BE00;}
	.st6{fill:#ADD250;}
</style>
<g>
	<g>
		<path class="st0" d="M54.2,32.7c-0.7-2.1,0-4.3,0.4-6.4c1-5.3,0.2-10.9-2.4-15.7c-6.1-6.5-15.7-8.8-24.5-7.3
			C19,4.7,11.1,9.5,4.5,15.5c1.3,2.8,0.9,6.1,0.1,9c-0.8,3-1.8,6-1.6,9c0.2,2.7,1.3,5.2,1.4,7.9s-1.6,5.8-4.3,5.8
			C4.9,49,13.4,50,18.5,50c16.5-0.2,26.2-0.5,40.9-7.9C57.6,41.8,54.8,34.3,54.2,32.7z"/>
		<path class="st0" d="M54.2,32.7c-0.7-2.1,0-4.3,0.4-6.4c0.8-4.3,0.4-8.8-1.1-12.9c-3.5,5.9-10.6,8.1-17.6,8.6
			c-5,0.3-10.2,0.5-15.2,0c-5.4-0.5-10.4-2.2-15.4-3.9c0.3,2.1-0.1,4.4-0.6,6.5c-0.8,3-1.8,6-1.6,9c0.2,2.7,1.3,5.2,1.4,7.9
			s-1.6,5.8-4.3,5.8C4.9,49,13.4,50,18.5,50c16.5-0.2,26.2-0.5,40.9-7.9C57.6,41.8,54.8,34.3,54.2,32.7z"/>
		<path class="st1" d="M47.2,18.8c-12,2.6-24.3,4-36.6,4.1c0.3,6,0.5,12,0.8,18.1C23.1,38,35.5,35.1,47,38.6
			C48.1,32,49.2,25.2,47.2,18.8z"/>
		<g>
			<path class="st2" d="M18,34.3c0.3-0.1,0.6-0.2,0.9-0.4c0.3-0.2,0.5-0.4,0.6-0.6l-0.3-0.8l-1.4,0.4L17.5,32l2.6-0.8l0.7,2.2
				c-0.2,0.4-0.5,0.8-1,1.1c-0.4,0.3-0.9,0.6-1.5,0.8c-1,0.3-1.8,0.3-2.5-0.1c-0.7-0.4-1.2-1-1.5-2c-0.3-1-0.3-1.8,0.1-2.5
				c0.4-0.7,1-1.2,2-1.5c1.4-0.4,2.4-0.2,3.1,0.7l-1,0.7c-0.2-0.3-0.5-0.4-0.8-0.5c-0.3-0.1-0.6-0.1-1,0.1c-0.6,0.2-1,0.5-1.2,0.9
				c-0.2,0.4-0.2,1,0,1.6c0.2,0.7,0.5,1.1,0.9,1.4C16.9,34.4,17.4,34.4,18,34.3z"/>
			<path class="st2" d="M22.1,33.9L21,30.5c-0.1-0.2-0.1-0.5-0.2-0.6c-0.1-0.2-0.1-0.3-0.2-0.4l1.1-0.4c0,0,0.1,0.2,0.2,0.4
				c0.1,0.3,0.2,0.4,0.2,0.5l0,0c0-0.4,0-0.6,0.1-0.8c0-0.2,0.1-0.3,0.2-0.4c0.1-0.1,0.2-0.2,0.4-0.2c0.1,0,0.3-0.1,0.4-0.1l0.3,1
				c-0.2,0-0.4,0-0.5,0.1c-0.3,0.1-0.5,0.3-0.6,0.6c-0.1,0.3-0.1,0.7,0.1,1.1l0.7,2.2L22.1,33.9z"/>
			<path class="st2" d="M29,29.3c0.2,0.7,0.2,1.4-0.1,1.9c-0.3,0.5-0.8,0.9-1.5,1.2c-0.7,0.2-1.3,0.2-1.9-0.1
				c-0.5-0.3-0.9-0.8-1.1-1.5c-0.2-0.7-0.2-1.4,0.1-1.9c0.3-0.5,0.8-0.9,1.5-1.2c0.7-0.2,1.4-0.2,1.9,0.1C28.4,28,28.8,28.5,29,29.3
				z M27.8,29.7c-0.2-0.5-0.4-0.9-0.6-1.1c-0.3-0.2-0.5-0.2-0.9-0.1c-0.7,0.2-0.9,0.8-0.6,1.9c0.2,0.5,0.4,0.9,0.6,1.1
				c0.3,0.2,0.5,0.3,0.9,0.2C27.9,31.3,28.1,30.7,27.8,29.7z"/>
			<path class="st2" d="M30.4,26.4l0.8,2.5c0.2,0.8,0.6,1.1,1.2,0.9c0.3-0.1,0.5-0.3,0.6-0.6c0.1-0.3,0.1-0.6,0-1l-0.8-2.4l1.2-0.4
				l1.1,3.5c0.1,0.4,0.2,0.7,0.4,1l-1.1,0.4c-0.2-0.4-0.3-0.7-0.3-0.9l0,0c0,0.4-0.2,0.7-0.4,0.9c-0.2,0.2-0.5,0.4-0.8,0.5
				c-0.5,0.2-0.9,0.1-1.2-0.1c-0.3-0.2-0.6-0.6-0.8-1.2l-0.9-2.9L30.4,26.4z"/>
			<path class="st2" d="M38.8,28.7L38,26.2c-0.2-0.8-0.6-1.1-1.2-0.9c-0.3,0.1-0.5,0.3-0.6,0.6c-0.1,0.3-0.1,0.6,0,1l0.8,2.4
				l-1.2,0.4l-1.1-3.5c-0.1-0.2-0.1-0.4-0.2-0.6c-0.1-0.2-0.1-0.3-0.2-0.4l1.1-0.4c0,0,0.1,0.2,0.2,0.4c0.1,0.2,0.1,0.4,0.2,0.5l0,0
				c0.1-0.4,0.2-0.7,0.4-0.9c0.2-0.2,0.5-0.4,0.8-0.5c0.5-0.1,0.9-0.1,1.2,0.1c0.3,0.2,0.6,0.6,0.8,1.2l0.9,2.9L38.8,28.7z"/>
			<path class="st2" d="M44.1,27.1c0,0-0.1-0.1-0.1-0.3c-0.1-0.2-0.1-0.3-0.2-0.4l0,0c-0.1,0.6-0.5,1-1.2,1.3
				c-0.5,0.2-1,0.1-1.4-0.2c-0.4-0.3-0.7-0.9-1-1.6c-0.2-0.7-0.3-1.4-0.1-1.9c0.2-0.5,0.5-0.8,1.1-1c0.3-0.1,0.6-0.1,0.9-0.1
				c0.3,0.1,0.5,0.2,0.7,0.4l0,0l-0.2-0.7L42,20.9l1.2-0.4l1.6,5.2c0.1,0.3,0.2,0.6,0.3,1L44.1,27.1z M43.3,24.8
				c-0.2-0.5-0.4-0.8-0.6-1c-0.2-0.2-0.5-0.3-0.8-0.2c-0.3,0.1-0.5,0.3-0.6,0.6c-0.1,0.3,0,0.7,0.1,1.2c0.3,1,0.8,1.4,1.4,1.2
				c0.3-0.1,0.5-0.3,0.6-0.6C43.5,25.7,43.4,25.3,43.3,24.8z"/>
		</g>
		<path class="st3" d="M1.3,21.7c6.2,4.1,13.8,5.3,21.2,5.5c6.7,0.2,13.4-0.2,19.8-2.2c6.4-2,16.4-9.8,16.4-9.8
			c-2.3-1.6-4.7-3.4-6.9-5c-5.7,6.4-14.2,9.7-22.6,10.2c-8.4,0.5-16.9-1.7-24.7-4.9C3.5,17.5,2.4,19.6,1.3,21.7z"/>
		<path class="st4" d="M32.4,0.7c1.3-0.4,2.4,1.1,3.8,1.1c5,0.1,4.7,2.4,5.9,2.7c1.2,0.3,2.5,0.2,3.6,0.8c1,0.5,0.6,3.4,2.7,3.6
			c1,0.1,1.5,1.3,0.9,2.1c-0.8,1-2.3,0-3.4,0.2c-1.4,0.3-1.9,2.1-3.3,2.4c-0.8,0.2-1.6-0.2-2.4-0.2c-1.2,0-2.2,0.9-3.2,1.6
			c-0.8,0.6-1.9,1-2.8,0.7c-0.7-0.2-1.5-0.2-2.2-0.1c-1.5,0.2-3.1,0.7-4.5,1.3c-0.5,0.2-1,0-1.3-0.3c-0.3-0.4-0.8-0.6-1.3-0.5
			c-0.8,0.1-1.5,0.7-2.2,1.1c-0.7,0.4-1.7,0.7-2.3,0.1c0-1-1.3-1.5-2.3-1.3c-1,0.2-2.3,1.5-2.9,0.7c-2.3-3-3.5-0.7-6.2-3.2
			c-1.3-1.2-0.2-4,1.6-4.2c-1-1.5,0-4,1.9-4.3c1.1-0.2,2.4,0.3,3.3-0.5c0.7-0.7,0.7-2,1.6-2.5c1.2-0.7,2.6,0.9,3.9,0.8
			c1.7-0.1,2.5-2.6,4.2-2.6c1.5,0,2.4,1.8,3.9,1.8C30.5,2.1,31.3,1,32.4,0.7z"/>
	</g>
	<g>
		<path class="st4" d="M42.2,52.8c0.9-1,2.4-2.4,3.5-3.2c1.1-0.8,2.3-1.5,3.6-1.6c1.4-0.2,2.9,0.3,4.2,0.9c1.9,1,3.5,2.4,5.1,3.8
			c-2.3,1.6-5,2.4-7.7,2.6C46.2,55.7,42.2,52.8,42.2,52.8z"/>
		<path class="st5" d="M60,35.6c-0.3,0.8-0.8,1.6-1.6,2.1c-1.3,0.8-2.9,0.6-4.4,0.4c-1.5-0.2-3.1-0.3-4.3,0.6
			c0.3-1.9,0.6-3.9,1.9-5.3c1.2-1.4,3.1-2.1,4.9-2.4c1.8-0.3,3.7-0.4,5.5-1c-0.8,0.7-1.1,1.7-1.3,2.7C60.5,33.7,60.4,34.7,60,35.6z"
			/>
		<path class="st6" d="M54.2,36.1c-1.4,0.6-2.7,1.3-4,2.2c2.1-2.9,6.5-3.1,8.8-5.8c-0.3,1-1.1,1.8-2,2.3
			C56.1,35.3,55.1,35.7,54.2,36.1z"/>
		<path class="st6" d="M53.5,34.1c-0.8,1.2-1.7,2.3-2.5,3.5C52.2,36.8,53,35.5,53.5,34.1z"/>
		<path class="st6" d="M56,32.8c-0.4,1.1-1.1,2.1-1.9,2.9l0.8-0.3c0.1-0.1,0.3-0.5,0.6-0.9C55.8,34,56.1,33.4,56,32.8z"/>
		<path class="st6" d="M54.8,35.5c-0.1,0-0.1,0-0.2,0.1c-0.1,0.1,0.1,0.2,0.2,0.2c0.6,0.1,1.3,0.2,1.9,0.1c0.6-0.1,1.4-0.3,1.8-0.8
			C57.1,35.5,56,35.5,54.8,35.5z"/>
		<path class="st6" d="M57.2,36.7c-1.6,0.1-3.1,0.1-4.7-0.2l-0.2,0.5C53.7,37.3,55.9,37.1,57.2,36.7z"/>
		<path class="st5" d="M49.3,33.7c-0.9-1.8-2.8-2.9-4.8-3.3c-2-0.4-4-0.2-5.9,0.2c0.9,0.3,1.6,1.1,2,2c0.4,0.9,0.5,1.9,0.7,2.9
			c0.2,1,0.5,1.9,1.1,2.7c0.9,1,2.4,1.4,3.8,1.3c1.4-0.1,2.7-0.6,4-1.2C50.2,36.8,50.1,35.1,49.3,33.7z"/>
		<path class="st6" d="M45.5,34.8c-0.9-1.1-1.6-2.4-2.8-2.8c1.2,1.1,2,2.6,3,3.9c1,1.3,2.5,2.5,4.1,2.4
			C48.2,37.2,46.6,36.2,45.5,34.8z"/>
		<path class="st6" d="M46.9,33.2c-0.1,0.7-0.2,1.4-0.1,2.2c0.1,0.7,0.3,1.4,0.8,2c0-0.5-0.1-1-0.2-1.5C47.2,35,47,34.1,46.9,33.2z"
			/>
		<path class="st6" d="M44.9,35c0.1,0.2,0.4,0.1,0.5-0.1c0.1-0.2-0.4-2.7-0.7-3C44.8,32.9,44.8,33.9,44.9,35z"/>
		<path class="st6" d="M45.2,35.3c0.1,0,0.2,0,0.3-0.1c0.1-0.1,0-0.2-0.1-0.3c-0.1-0.1-0.2-0.1-0.4-0.1c-0.8-0.1-1.7-0.1-2.5-0.2
			C43.3,35.2,44.2,35.4,45.2,35.3z"/>
		<path class="st6" d="M43.5,36.5c1.1,0.7,2.5,0.8,3.8,0.5c0-0.1-0.1-0.2-0.1-0.4C45.9,36.6,44.7,36.5,43.5,36.5z"/>
		<path class="st5" d="M51.1,49.1c0.7-0.2,0.8-1.1,0.8-1.8c0-1.7,0.1-3.5-0.2-5.2c-0.2-1.7-0.7-3.4-1.7-4.9
			c-0.4,0.4-0.5,0.9-0.5,1.5s0.2,1.1,0.3,1.6c0.6,2.7,0.5,5.5-0.4,8.1C49.9,48.9,50.5,49.3,51.1,49.1z"/>
	</g>
</g>
</svg>
