<?xml version="1.0" encoding="utf-8"?>
<!-- Generator: Adobe Illustrator 23.1.0, SVG Export Plug-In . SVG Version: 6.00 Build 0)  -->
<svg version="1.1" id="Слой_1" xmlns="http://www.w3.org/2000/svg" xmlns:xlink="http://www.w3.org/1999/xlink" x="0px" y="0px"
	 viewBox="0 0 136.2 135.8" style="enable-background:new 0 0 136.2 135.8;" xml:space="preserve">
<style type="text/css">
	.st0{fill:url(#SVGID_1_);}
	.st1{fill:#C7D8E7;}
	.st2{fill:#A9C3D4;}
	.st3{fill:#FFFFFF;}
</style>
<g>
	<g>
		<linearGradient id="SVGID_1_" gradientUnits="userSpaceOnUse" x1="68.1522" y1="135.3942" x2="68.1522" y2="0.3942">
			<stop  offset="0" style="stop-color:#498EBF"/>
			<stop  offset="1" style="stop-color:#46A7D4"/>
		</linearGradient>
		<circle class="st0" cx="68.2" cy="67.9" r="67.5"/>
		<path class="st1" d="M46.3,72.8l8,22.2c0,0,1,2.1,2.1,2.1c1.1,0,17-16.6,17-16.6l17.7-34.3L46.6,67.1L46.3,72.8z"/>
		<path class="st2" d="M57,78.5l-1.5,16.3c0,0-0.6,5,4.4,0c5-5,9.8-8.9,9.8-8.9L57,78.5z"/>
		<g>
			<path class="st3" d="M46.5,73.6L30,68.3c0,0-2-0.8-1.3-2.6c0.1-0.4,0.4-0.7,1.2-1.2c3.7-2.5,67.6-25.5,67.6-25.5s1.8-0.6,2.9-0.2
				c0.5,0.2,0.8,0.4,1.1,1.2c0.1,0.3,0.2,0.9,0.1,1.5c0,0.4-0.1,0.8-0.1,1.4c-0.4,6.3-12,53.2-12,53.2s-0.7,2.7-3.2,2.8
				c-0.9,0-2-0.2-3.3-1.3C77.9,93.2,61,81.8,57.3,79.3C57,79.2,57,79,56.9,78.8c-0.1-0.3,0.2-0.6,0.2-0.6s29.5-26.2,30.3-29
				c0.1-0.2-0.2-0.3-0.5-0.2c-2,0.7-35.9,22.2-39.7,24.5C47.1,73.7,46.5,73.6,46.5,73.6z"/>
		</g>
	</g>
</g>
</svg>
