<?xml version="1.0" encoding="utf-8"?>
<!-- Generator: Adobe Illustrator 23.1.0, SVG Export Plug-In . SVG Version: 6.00 Build 0)  -->
<svg version="1.1" id="Слой_1" xmlns="http://www.w3.org/2000/svg" xmlns:xlink="http://www.w3.org/1999/xlink" x="0px" y="0px"
	 viewBox="0 0 135.7 135.7" style="enable-background:new 0 0 135.7 135.7;" xml:space="preserve">
<style type="text/css">
	.st0{fill:#0E0F0F;}
	.st1{fill-rule:evenodd;clip-rule:evenodd;fill:#D44D5F;}
	.st2{fill-rule:evenodd;clip-rule:evenodd;fill:#FFFFFF;}
	.st3{fill-rule:evenodd;clip-rule:evenodd;fill:#6CBCC3;}
</style>
<g>
	<circle class="st0" cx="68" cy="68.1" r="67.3"/>
	<g>
		<path class="st1" d="M85.7,56.6c5.5,3.9,12.1,6.2,19.4,6.2V48.9c-1.4,0-2.7-0.1-4.1-0.4v10.9c-7.2,0-13.9-2.3-19.4-6.2v28.3
			c0,14.2-11.5,25.7-25.7,25.7c-5.3,0-10.2-1.6-14.3-4.3c4.7,4.8,11.2,7.7,18.4,7.7c14.2,0,25.7-11.5,25.7-25.7L85.7,56.6L85.7,56.6
			z M90.7,42.5c-2.8-3-4.6-7-5-11.3v-1.8h-3.9C82.8,35,86.1,39.7,90.7,42.5L90.7,42.5z M50.6,91.9c-1.6-2-2.4-4.5-2.4-7.1
			c0-6.5,5.3-11.7,11.7-11.7c1.2,0,2.4,0.2,3.6,0.5V59.5c-1.3-0.2-2.7-0.3-4.1-0.2v11c-1.2-0.4-2.4-0.6-3.6-0.5
			c-6.5,0-11.7,5.3-11.7,11.7C44.1,86,46.8,90,50.6,91.9z"/>
		<path class="st2" d="M81.6,53.2c5.5,3.9,12.1,6.2,19.4,6.2V48.4c-4-0.9-7.6-3-10.3-5.9c-4.6-2.9-7.9-7.6-8.9-13.1H71.7v55.4
			c0,6.5-5.3,11.7-11.7,11.7c-3.8,0-7.2-1.8-9.3-4.6c-3.8-1.9-6.5-5.9-6.5-10.5c0-6.5,5.3-11.7,11.7-11.7c1.2,0,2.4,0.2,3.6,0.5v-11
			c-13.9,0.3-25.1,11.7-25.1,25.7c0,7,2.8,13.3,7.3,17.9c4.1,2.7,9,4.3,14.3,4.3c14.2,0,25.7-11.5,25.7-25.7V53.2z"/>
		<path class="st3" d="M101,48.4v-3c-3.6,0-7.2-1-10.3-2.9C93.4,45.5,97,47.6,101,48.4z M81.8,29.4c-0.1-0.5-0.2-1.1-0.2-1.6v-1.8
			h-14v55.4c0,6.5-5.3,11.7-11.7,11.7c-1.9,0-3.7-0.5-5.3-1.3c2.1,2.8,5.5,4.6,9.3,4.6c6.5,0,11.7-5.2,11.7-11.7V29.4H81.8z
			 M59.5,59.2v-3.1c-1.2-0.2-2.3-0.2-3.5-0.2c-14.2,0-25.7,11.5-25.7,25.7c0,8.9,4.5,16.7,11.4,21.3c-4.5-4.6-7.3-11-7.3-17.9
			C34.3,70.9,45.5,59.5,59.5,59.2L59.5,59.2z"/>
	</g>
</g>
</svg>
