<?xml version="1.0" encoding="utf-8"?>
<!-- Generator: Adobe Illustrator 23.1.0, SVG Export Plug-In . SVG Version: 6.00 Build 0)  -->
<svg version="1.1" id="Слой_1" xmlns="http://www.w3.org/2000/svg" xmlns:xlink="http://www.w3.org/1999/xlink" x="0px" y="0px"
	 viewBox="0 0 62 71" style="enable-background:new 0 0 62 71;" xml:space="preserve">
<style type="text/css">
	.st0{fill:#87BE00;}
	.st1{fill:#ADD250;}
	.st2{fill:#664A3B;}
</style>
<g>
	<path class="st0" d="M26.4,58.8c0.9-0.1,4.3-0.1,5.2,0c-1.1-5.9-1.7-11.9-1.9-17.3c-0.3-7.8-1.4-20.3-0.1-30.6l-0.6,2
		c-1.9,7.4-2,15.6-2.2,23.3C26.4,48.8,26.5,51.2,26.4,58.8z"/>
	<path class="st0" d="M31,24.6c-1.2,1-2.5,2.1-3.4,3.3c0.2,1.1,0.3,2.3,0.4,3.4C32.1,26,36.8,21,42,16.6C38,18.7,34.5,21.7,31,24.6z
		"/>
	<path class="st0" d="M28.6,46.1c-0.3-1.6,0.2-3.2,1.1-4.6c0.8-1.4,2-2.5,3.2-3.5c2.9-2.5,6.3-4.5,10.1-4.9
		C37.3,36.3,32.4,40.7,28.6,46.1z"/>
	<path class="st0" d="M28.6,45c0.3-1.8,0.7-2.7-0.7-4.1c-1.3-1.3-5.6-5.2-7.3-5.9c-1.7-0.7-2.1-0.1-3.7-1.1C21.1,37,25,41.2,28.6,45
		z"/>
	<path class="st0" d="M18.2,15c3.4,4.8,6.6,9.7,9.5,14.7c0.5-0.9,0.5-2.1,0.3-3.1c-0.3-1-0.8-2-1.4-2.9C24.3,20.4,21.4,17.4,18.2,15
		z"/>
	<path class="st0" d="M33.3,7.5c2.3-1.7,5.2-2.4,7.4-4.2c0.1,3.1-1.1,6.1-3.3,8.3c-2.2,2.1-5.4,3.2-8.4,2.9
		C29.4,11.7,31,9.2,33.3,7.5z"/>
	<path class="st1" d="M38.1,6c-1.6,3.6-4.7,6.5-8.3,7.8C32.9,11.6,35.8,9,38.1,6z"/>
	<path class="st1" d="M34.6,11.1c0.9-0.3,1.8-0.7,2.5-1.3c-0.8,1.5-2.6,2.4-4.3,2C33.4,11.6,34,11.4,34.6,11.1z"/>
	<path class="st1" d="M34.1,7.7c-0.4,1.8-0.9,2.8-1.6,4.1c0.6-0.3,0.5-0.1,0.9-0.7C33.8,10.3,34.3,9.1,34.1,7.7z"/>
	<path class="st0" d="M28.8,14.1c0,0,2.7-6,0-10c-1.5-2.3-4.3-3.4-7-3.8c0.3,1.9,0.6,3.8,0.9,5.7c0.2,1.2,0.4,2.4,0.8,3.6
		C24.7,12.7,28.8,14.1,28.8,14.1z"/>
	<path class="st1" d="M24.5,3.2c1.5,2.9,2.9,6,3.7,9.2c0.4-2.3-0.9-4.4-1.9-6.6C25.6,4.4,24.5,3.3,24.5,3.2z"/>
	<path class="st1" d="M28,5c0.5,1.3,0.4,3.8-0.1,5.1c-0.1,0.3-0.2-0.3-0.2-0.3C28.1,8.2,28.2,6.6,28,5z"/>
	<path class="st1" d="M27.8,9.7c-1.4-1.1-2.5-1.9-3.9-3c0.4,0.9,2.6,2.8,3.9,3.5L27.8,9.7z"/>
	<path class="st0" d="M37.2,24.7c3.8,0.2,7.3-2.2,9.4-5.2c2.2-3.1,3.2-6.8,4-10.5C47,8.8,43.2,8.7,40,10.4c-2.5,1.4-4.4,3.8-5.6,6.4
		c-1.2,2.6-1.8,5.4-2.5,8.2C33.4,24,35.4,24.6,37.2,24.7z"/>
	<path class="st1" d="M40.8,17.8c0,0.2-0.1,0.4-0.2,0.6c2.6-0.1,4.6-0.9,6.1-2.9C44.8,16.9,43,17.4,40.8,17.8z"/>
	<path class="st1" d="M39.4,22c-0.9-0.1-3.6-0.2-3.7-0.2c0.6-0.7,3.4-0.9,5-0.8c1,0.1,2.5-0.1,3.2-0.6C43.2,21.6,41.8,22.3,39.4,22z
		"/>
	<path class="st1" d="M35.7,22.1c1.2-0.5,2-1.8,2.2-3.1c0.3-1.3,0.2-2.6,0.2-4C37.8,17.6,37,20,35.7,22.1z"/>
	<path class="st1" d="M40.2,17.1c-0.2,0.6-0.6,1.8-0.9,2.3c1-0.6,1.6-1.4,1.8-2.8c0.2-1.3,0.4-2.4,0.2-4.3
		C41,14.2,40.7,15.3,40.2,17.1z"/>
	<path class="st0" d="M14.7,21.1c2.6,1.3,5.6,1.1,8.5,1c0.7-3.5,1.4-7.3-0.1-10.6c-1.2-2.6-3.8-4.4-6.5-5.5C13.9,4.8,11,4.4,8.2,3.7
		C8.1,7,8.1,10.3,8.9,13.5C9.8,16.6,11.8,19.6,14.7,21.1z"/>
	<path class="st1" d="M20.1,17c0,0.5,0,1,0.4,1.3c0.7-2.2,0.8-4.7,0.2-7C20.4,13.2,20.3,15.1,20.1,17z"/>
	<path class="st1" d="M19.6,17.7c-2.4,0.2-4.9,0-7.2-0.7c0.8,0.8,2.3,1.3,3.1,1.5c0.8,0.2,4.1,0.2,5.4,0.2c0,0,0-0.1,0-0.1
		C20.4,18.4,19.9,18,19.6,17.7z"/>
	<path class="st1" d="M17.8,15c-2.2,0-4.4-0.3-6.4-0.9c0.8,0.9,2.2,1.4,3,1.6C15,15.8,17,16,18.5,16C18.2,15.7,18,15.4,17.8,15z"/>
	<path class="st1" d="M22.3,20.3c-1.9-3-7.5-9.9-10.3-12.9C13.6,11.1,18.9,17.8,22.3,20.3z"/>
	<path class="st1" d="M18.1,9.2c-0.6,1.1-0.4,3.3-0.4,4.5c0,1.6,0.6,2.2,0.9,2.4C18.4,13.9,18.2,11.6,18.1,9.2z"/>
	<path class="st1" d="M16.4,13.2c-0.1-2-0.3-4.1-0.4-6.1c-0.3,1.2-0.3,2.5-0.3,3.7c0,0.6,0.1,1.3,0.3,1.9
		C16.1,12.8,16.1,12.9,16.4,13.2z"/>
	<path class="st1" d="M16.4,13.2C16.3,13.2,16.3,13.1,16.4,13.2C16.3,13.2,16.3,13.2,16.4,13.2c0,0-0.1-0.1-0.1-0.1
		c-0.1-0.1-0.1-0.2-0.1-0.3c-1.9-0.7-3.8-1.3-5.7-2c1.7,1.6,3.9,2.7,6.3,3C16.6,13.6,16.5,13.4,16.4,13.2z"/>
	<path class="st0" d="M52.5,24c2.9,0.2,6,1.2,8.7,0C58,28,57.8,34.1,54,37.6c-2.3,2.1-5.6,2.9-8.7,2.4c-3.1-0.5-5.9-2-8.3-4.1
		c0.7-3.5,2.7-6.7,5.5-8.9C45.3,24.9,48.9,23.8,52.5,24z"/>
	<path class="st1" d="M56.9,26.1c-2.9,3.6-9.2,7.3-14.2,9c-1.3,0.4-2.7,0.5-4.1,0.2l0,0C44.8,34,51.6,29.7,56.9,26.1z"/>
	<path class="st1" d="M46.7,11.1c-1.6,3.7-5.9,8.3-9.7,10.8c-1,0.7-2.2,1.1-3.4,1.1l0,0C38.5,20.5,43.2,15.4,46.7,11.1z"/>
	<path class="st1" d="M47.5,32.2c1.3-1.7,2.5-3.5,3.4-5.4c0,1.2-0.5,2.6-1.1,3.6C49.3,31.4,48.6,32,47.5,32.2z"/>
	<path class="st1" d="M41.7,34.9c1.2-0.2,2-1.4,2.3-2.5c0.3-1.2,0.6-2.2,0.4-3.6C43.9,30.9,42.9,33.1,41.7,34.9z"/>
	<path class="st1" d="M45.4,33.4c1.2-0.4,1.8-1.8,1.9-3c0.1-1.3,0.3-2.3-0.2-3.8C47,29,46.4,31.3,45.4,33.4z"/>
	<path class="st1" d="M55.8,31c-2.5,0.3-4.1,0-6.1,0.5c-0.2,0-0.4,0.1-0.5,0.2c-0.1,0.1-0.5,0.4-0.4,0.5
		C51.1,32.3,53.7,32.2,55.8,31z"/>
	<path class="st1" d="M45.8,32.9c-0.1,0.2-0.3,0.4-0.4,0.6c2.4,1.3,4.2,2,7.6,1.8C50.4,34.5,48.2,34,45.8,32.9z"/>
	<path class="st1" d="M42.5,34.6c-0.2,0-0.4,0-0.4,0.2c-0.1,0.1,0.1,0.3,0.2,0.4c2,1.8,4.7,2.8,7.4,2.6c-1-0.3-2.5-0.7-3.6-1.4
		C44.9,35.6,43.8,34.8,42.5,34.6z"/>
	<path class="st0" d="M7,35.4c2.1,1.5,4.6,2.3,7.2,2.5c2.6,0.2,5.1-0.2,7.6-0.7c-0.1-2.5-0.2-5.1-1-7.6c-0.8-2.4-2.2-4.7-4.4-6
		C11.9,20.8,5.7,23.1,0.8,21c0.2,2.7,0.6,5.4,1.6,7.9C3.3,31.4,4.9,33.8,7,35.4z"/>
	<path class="st1" d="M10.6,30c2.2,1.6,5.5,4,8,5.5c0.5,0.3,1.1,0.6,1.8,0.7l0,0c-4.6-4.2-8.6-6.4-15.3-11.9
		C6.4,26.6,8.5,28.4,10.6,30z"/>
	<path class="st1" d="M18.2,34.7c-0.6-2.5-1.5-5.3-1.6-7.9c-0.4,2.5,0,5.1,0.5,7.6C17.3,34.4,18,34.6,18.2,34.7z"/>
	<path class="st1" d="M12.5,24.9c-0.4,1.6-0.2,3.5,0.4,6.2c0.4,0.3,1,0.3,1,0.3C12.9,28.9,13,27.4,12.5,24.9z"/>
	<path class="st1" d="M8.7,23.9c-0.3,1.4,0.4,4,0.5,4.2c0.2,0.6,0.3,0.2,0.9,0.5C9.7,27,9.2,25.4,8.7,23.9z"/>
	<path class="st1" d="M9.2,28.1c-2.1,0.2-3.5,0.4-5.8-0.1c1.8,1.2,4.2,1.3,6.4,1c0,0,0.1,0,0.1,0C9.6,28.6,9.4,28.4,9.2,28.1z"/>
	<path class="st1" d="M12.4,31.4c-2.1,0.3-4.2,0-6.3-0.2c1.2,0.8,2.6,1.2,4,1.3c1.4,0.1,2.8,0.1,4.2,0c0.1-0.4-0.2-0.9-0.6-1
		C13.3,31.2,12.8,31.3,12.4,31.4z"/>
	<path class="st1" d="M17.8,34.9c0.1,0,0.3-0.1,0.4-0.2c0.1-0.2,0-0.4-0.2-0.5c-0.2-0.1-0.4-0.1-0.6-0.1c-3.3,0.7-5.8,0.5-8.5,0.4
		C11.7,35.6,14.9,35.8,17.8,34.9z"/>
	<path class="st2" d="M11.6,65.4c3.7-5.7,10.3-9.3,17.1-9.3c6.8,0,13.4,3.7,17.1,9.4c-4.8,3.6-11,5.2-17,5
		C22.7,70.3,16.9,68.3,11.6,65.4z"/>
</g>
</svg>
