<?xml version="1.0" encoding="utf-8"?>
<!-- Generator: Adobe Illustrator 23.1.0, SVG Export Plug-In . SVG Version: 6.00 Build 0)  -->
<svg version="1.1" id="Слой_1" xmlns="http://www.w3.org/2000/svg" xmlns:xlink="http://www.w3.org/1999/xlink" x="0px" y="0px"
	 viewBox="0 0 136.2 135.8" style="enable-background:new 0 0 136.2 135.8;" xml:space="preserve">
<style type="text/css">
	.st0{fill-rule:evenodd;clip-rule:evenodd;fill:#6293CF;}
	.st1{fill:#FFFFFF;}
</style>
<g>
	<circle class="st0" cx="68.3" cy="68.1" r="67.5"/>
	<g>
		<g>
			<path class="st1" d="M54.7,106.9c33,0,51-27.3,51-51c0-0.8,0-1.5-0.1-2.3c3.5-2.5,6.5-5.7,8.9-9.3c-3.2,1.4-6.7,2.4-10.3,2.8
				c3.7-2.2,6.5-5.7,7.9-9.9c-3.5,2.1-7.3,3.5-11.4,4.4c-3.3-3.5-7.9-5.7-13.1-5.7c-9.9,0-17.9,8-17.9,17.9c0,1.4,0.2,2.8,0.5,4.1
				c-14.9-0.7-28.1-7.9-36.9-18.7c-1.5,2.6-2.4,5.7-2.4,9c0,6.2,3.2,11.7,8,14.9c-2.9-0.1-5.7-0.9-8.1-2.2c0,0.1,0,0.1,0,0.2
				c0,8.7,6.2,15.9,14.4,17.6c-1.5,0.4-3.1,0.6-4.7,0.6c-1.2,0-2.3-0.1-3.4-0.3c2.3,7.1,8.9,12.3,16.7,12.4
				c-6.1,4.8-13.9,7.7-22.3,7.7c-1.4,0-2.9-0.1-4.3-0.2C35.2,104,44.6,106.9,54.7,106.9"/>
		</g>
	</g>
</g>
</svg>
