<?xml version="1.0" encoding="utf-8"?>
<!-- Generator: Adobe Illustrator 23.1.0, SVG Export Plug-In . SVG Version: 6.00 Build 0)  -->
<svg version="1.1" id="Слой_1" xmlns="http://www.w3.org/2000/svg" xmlns:xlink="http://www.w3.org/1999/xlink" x="0px" y="0px"
	 viewBox="0 0 75 59" style="enable-background:new 0 0 75 59;" xml:space="preserve">
<style type="text/css">
	.st0{fill:#E6E2E0;}
	.st1{fill:#664A3B;}
	.st2{fill:#87BE00;}
	.st3{fill:#ADD250;}
	.st4{fill:#776056;}
	.st5{fill:#AA9B95;}
	.st6{fill:#A3948D;}
</style>
<g>
	<path class="st0" d="M23.3,21.1c0,0-22.5,3.6-22.8,35.9H33C33,57,12.4,35.1,23.3,21.1z"/>
	<g>
		<path class="st1" d="M6.9,57c0.6-0.6,1.5-1.5,2.2-2c0.7-0.5,1.4-0.9,2.3-1c0.9-0.1,1.8,0.2,2.6,0.6c1.2,0.6,2.2,1.5,3.2,2.4
			c-1.4,1-3.1,1.5-4.8,1.6C9.4,58.7,6.9,57,6.9,57z"/>
		<path class="st2" d="M18,46.2c-0.2,0.5-0.5,1-1,1.3c-0.8,0.5-1.8,0.4-2.7,0.2c-0.9-0.1-2-0.2-2.7,0.4c0.2-1.2,0.4-2.4,1.2-3.3
			c0.8-0.9,1.9-1.3,3.1-1.5c1.1-0.2,2.3-0.3,3.4-0.6c-0.5,0.4-0.7,1.1-0.8,1.7C18.3,45,18.2,45.6,18,46.2z"/>
		<path class="st3" d="M14.4,46.5c-0.9,0.4-1.7,0.8-2.5,1.4c1.3-1.8,4.1-1.9,5.5-3.6c-0.2,0.6-0.7,1.1-1.2,1.4
			C15.6,46,15,46.3,14.4,46.5z"/>
		<path class="st3" d="M14,45.2c-0.5,0.7-1,1.5-1.6,2.2C13.2,46.9,13.7,46,14,45.2z"/>
		<path class="st3" d="M15.5,44.4c-0.3,0.7-0.7,1.3-1.2,1.8c0.2-0.1,0.2,0,0.4-0.1C14.9,46,15.5,45.3,15.5,44.4z"/>
		<path class="st3" d="M14.7,46.1C14.7,46.1,14.7,46.1,14.7,46.1c-0.1,0.1,0,0.2,0,0.2c0.4,0.1,0.8,0.1,1.2,0c0.4-0.1,0.8-0.2,1-0.5
			C16.3,45.9,15.5,46,14.7,46.1z"/>
		<path class="st3" d="M16.3,46.9c-1,0.1-2,0-2.9-0.1c0,0.2,0.2,0.3,0.4,0.4C14.6,47.4,15.5,47.1,16.3,46.9z"/>
		<path class="st2" d="M11.4,45c-0.6-1.1-1.8-1.8-3-2.1c-1.2-0.3-2.5-0.1-3.7,0.1c0.6,0.2,1,0.7,1.2,1.3c0.2,0.6,0.3,1.2,0.4,1.8
			c0.1,0.6,0.3,1.2,0.7,1.7c0.6,0.7,1.5,0.9,2.4,0.8c0.9-0.1,1.7-0.4,2.5-0.7C11.9,46.9,11.8,45.9,11.4,45z"/>
		<path class="st3" d="M8.9,45.7c-0.5-0.7-1-1.5-1.8-1.8c0.8,0.7,1.2,1.6,1.9,2.4c0.6,0.8,1.5,1.6,2.6,1.5
			C10.6,47.2,9.7,46.6,8.9,45.7z"/>
		<path class="st3" d="M9.8,44.7c0,0.4-0.1,0.9,0,1.3c0,0.4,0.2,0.9,0.5,1.2c0-0.3-0.1-0.6-0.1-0.9C10,45.8,9.9,45.3,9.8,44.7z"/>
		<path class="st3" d="M8.6,45.8c0.1,0.1,0.3,0.1,0.3-0.1c0-0.1-0.2-1.7-0.5-1.9C8.5,44.5,8.6,45.2,8.6,45.8z"/>
		<path class="st3" d="M8.8,46c0.1,0,0.1,0,0.2-0.1c0-0.1,0-0.2-0.1-0.2c-0.1,0-0.1-0.1-0.2-0.1c-0.6,0.1-0.9,0-1.6-0.1
			C7.6,45.9,8.2,46.1,8.8,46z"/>
		<path class="st3" d="M7.7,46.8c0.7,0.4,1.6,0.5,2.4,0.3c0-0.1,0-0.1-0.1-0.2C9.2,46.8,8.5,46.8,7.7,46.8z"/>
		<path class="st2" d="M12.5,54.7c0.4-0.1,0.5-0.7,0.5-1.1c0-1.1,0-2.2-0.1-3.3c-0.1-1.1-0.5-2.2-1-3.1c-0.2,0.2-0.3,0.6-0.3,0.9
			c0,0.3,0.1,0.7,0.2,1c0.4,1.7,0.3,3.5-0.2,5.1C11.7,54.5,12.1,54.8,12.5,54.7z"/>
	</g>
	<g>
		<polygon class="st4" points="27.3,13.4 23.3,25 32,21 31.7,19.6 		"/>
		<path class="st4" d="M49.1,10.6c-0.9-1.9,0-4.4,2.1-5.9c2.2-1.5,4.9-1.5,6.3,0l2.1-1.5c-2.1-2.4-6.3-2.6-9.6-0.2
			c-3.3,2.3-4.6,6.3-3.1,9.1L49.1,10.6z"/>
		<polygon class="st5" points="56.3,24.2 31.5,19.4 30.4,21.7 59.8,30.5 		"/>
		<g>
			<path class="st4" d="M68.8,19.8L60.2,6.6l0.4-0.7c0.1-0.1,1.6-2.9,4-4.5c2.6-1.8,5.4-1.7,7.7,0.3c6,5.2-2,16.1-2.3,16.5
				L68.8,19.8z M63.4,6.5l5.5,8.5c1.7-2.9,4.7-8.7,1.7-11.3c-1.5-1.2-2.8-1.3-4.5-0.2C64.9,4.4,63.9,5.7,63.4,6.5z"/>
		</g>
		
			<rect x="51.6" y="5.1" transform="matrix(0.8201 -0.5722 0.5722 0.8201 0.6881 37.7388)" class="st6" width="17.6" height="25.3"/>
		<rect x="45" y="7.2" transform="matrix(0.82 -0.5723 0.5723 0.82 4.8913 32.2943)" class="st6" width="17.6" height="2.3"/>
		
			<rect x="57.8" y="24.8" transform="matrix(0.8202 -0.5721 0.5721 0.8202 -3.2704 42.8554)" class="st4" width="17.6" height="3.7"/>
	</g>
</g>
</svg>
