<?xml version="1.0" encoding="utf-8"?>
<!-- Generator: Adobe Illustrator 23.1.0, SVG Export Plug-In . SVG Version: 6.00 Build 0)  -->
<svg version="1.1" id="Слой_1" xmlns="http://www.w3.org/2000/svg" xmlns:xlink="http://www.w3.org/1999/xlink" x="0px" y="0px"
	 viewBox="0 0 136.2 135.8" style="enable-background:new 0 0 136.2 135.8;" xml:space="preserve">
<style type="text/css">
	.st0{fill:#CE4B43;}
	.st1{fill:#FFFFFF;}
</style>
<g>
	<circle class="st0" cx="68.3" cy="68.3" r="67.5"/>
	<path class="st1" d="M111.5,46.6c-1-3.9-4.1-6.9-8-8c-7-1.9-35.2-1.9-35.2-1.9s-28.1,0-35.2,1.9c-3.9,1-6.9,4.1-8,8
		c-1.9,7-1.9,21.7-1.9,21.7s0,14.6,1.9,21.7c1,3.9,4.1,6.9,8,8c7,1.9,35.2,1.9,35.2,1.9s28.1,0,35.2-1.9c3.9-1,6.9-4.1,8-8
		c1.9-7,1.9-21.7,1.9-21.7S113.3,53.6,111.5,46.6z M59.3,81.8v-27l23.4,13.5L59.3,81.8z"/>
</g>
</svg>
