<svg xmlns="http://www.w3.org/2000/svg" width="916.05" height="716.36" viewBox="0 0 916.05 716.36"><defs><style>.cls-1{fill:#007329;}.cls-2{fill:#fff;}.cls-3{fill:#039075;}.cls-4{fill:#0a7162;}.cls-5{fill:#72b86c;}</style></defs><g id="Layer_1" data-name="Layer 1"><path class="cls-1" d="M1163.69,115.8c.14,0,.56,0,.6-.19s-.24-.22-.36-.22-.56,0-.61.19.25.22.37.22Z" transform="translate(-248.25 -115.39)"/></g><g id="Layer_2" data-name="Layer 2"><path class="cls-2" d="M561.12,831c2.36-.17,4.67-.36,7-.58C565.79,830.64,563.45,830.83,561.12,831Z" transform="translate(-248.25 -115.39)"/><path class="cls-3" d="M603.91,651.12c37.34-151.49,151-218,197-239.18a1.13,1.13,0,0,0,.55-1.45c.17.33.31.64.47,1A290.28,290.28,0,0,1,831.75,540c0,135.4-92.25,249.27-217.31,282.14-.42.11-.81.22-1.22.3a1.07,1.07,0,0,0,.72-1.47c-28.37-68.35-10.31-168.35-10-169.8Zm63.32,31.09c9.61,1.83,49.51,5.14,97.06-51A62.14,62.14,0,0,0,779,591.1a1.11,1.11,0,0,0-1.09-1.09H742.56a61.36,61.36,0,0,0-41.15,15.84c-17.4,15.73-40.54,40.6-41.88,62.74a1.1,1.1,0,0,0,1.67,1c6.73-4,31.68-18.56,43.46-22.81a1.11,1.11,0,0,1,1.05,1.92l-38.92,31.62A1.08,1.08,0,0,0,667.23,682.21Z" transform="translate(-248.25 -115.39)"/><path class="cls-4" d="M416.08,677.09c11.44,10.95,44.62,43.1,53,55a1.09,1.09,0,0,0,2-.45c2.86-18.45,11.67-123-145-164.93a1.13,1.13,0,0,0-1.39,1.08v20.9a249.67,249.67,0,0,0,5.84,54.37c2.33,10.39,4.72,17.2,11.5,26.62,18.09,25.12,52.54,58.66,113.2,73.8a1.08,1.08,0,0,0,1.16-1.67c-7-10-34.06-49-42-63.46A1.09,1.09,0,0,1,416.08,677.09Zm107.25,29.62c0,22.51,2.3,83.75-8.64,122.62a1.07,1.07,0,0,0,.83,1.36c-.39,0-.81-.05-1.19-.08-149.1-13-266.08-138.12-266.08-290.61,0-122.17,75.08-226.79,181.64-270.24l.63-.25a1.06,1.06,0,0,0-.69.94c-2.7,44.26-4.2,146.88,29.59,233.43C503.88,617.8,523.33,676.15,523.33,706.71ZM412.19,512.21s-2.78-77.8-73.64-90.3c0,0-11.11,72.24,63.91,97.25,0,0-15.28-26.4-18.06-34.73C384.4,484.43,406.63,503.88,412.19,512.21Z" transform="translate(-248.25 -115.39)"/><path class="cls-2" d="M338.55,421.91c70.86,12.5,73.64,90.3,73.64,90.3-5.56-8.33-27.79-27.78-27.79-27.78,2.78,8.33,18.06,34.73,18.06,34.73C327.44,494.15,338.55,421.91,338.55,421.91Z" transform="translate(-248.25 -115.39)"/><path class="cls-2" d="M414.38,678.4c7.92,14.45,35,53.43,42,63.46a1.08,1.08,0,0,1-1.16,1.67c-60.66-15.14-95.11-48.68-113.2-73.8-6.78-9.42-9.17-16.23-11.5-26.62a249.67,249.67,0,0,1-5.84-54.37v-20.9a1.13,1.13,0,0,1,1.39-1.08c156.66,42,147.85,146.48,145,164.93a1.09,1.09,0,0,1-2,.45c-8.36-11.95-41.54-44.1-53-55A1.09,1.09,0,0,0,414.38,678.4Z" transform="translate(-248.25 -115.39)"/><path class="cls-2" d="M457.92,260c1.33-.42,2.67-.78,4-1.14a1.07,1.07,0,0,1,1.36,1.11c-3.17,49.43-2.22,197.11,103.36,339.68a1.11,1.11,0,0,0,1.89-.17c6.53-13.89,56.6-111.81,215.51-217.23a1.13,1.13,0,0,1,1.39.09c1.53,2.3,3,4.64,4.42,7,1.11,1.86,2.22,3.69,3.25,5.56q2.54,4.41,4.94,8.91,1.59,3,3.09,6.06l.33.64a1.13,1.13,0,0,1-.55,1.45c-46.05,21.2-159.69,87.69-197,239.18v0c-.28,1.45-18.34,101.45,10,169.8a1.07,1.07,0,0,1-.72,1.47c-1.51.42-3,.78-4.56,1.14-4.36,1.06-8.75,2-13.2,2.89l-4.5.83-4.53.75c-1.5.25-3,.48-4.53.7s-3.06.44-4.58.64c-2.89.36-5.81.69-8.73,1l-.47.06c-2.33.22-4.64.41-7,.58-1.61.11-3.23.22-4.87.28-.61.05-1.25.08-1.86.11-3,.17-6.14.25-9.22.33l-5.17,0q-4.5,0-9-.17c-3.11-.08-6.23-.22-9.31-.41-1.58-.11-3.17-.23-4.72-.36a11.34,11.34,0,0,1-1.45-.12,1.07,1.07,0,0,1-.83-1.36c10.94-38.87,8.64-100.11,8.64-122.62,0-30.56-19.45-88.91-63.91-202.83-33.79-86.55-32.29-189.17-29.59-233.43a1.06,1.06,0,0,1,.69-.94c1.28-.53,2.56-1,3.84-1.53,2.55-1,5.14-2,7.75-2.89,3.89-1.39,7.84-2.7,11.81-3.92C455.25,260.75,456.59,260.36,457.92,260Z" transform="translate(-248.25 -115.39)"/><path class="cls-2" d="M568.59,830.36c2.92-.28,5.84-.61,8.73-1C574.43,829.75,571.51,830.08,568.59,830.36Z" transform="translate(-248.25 -115.39)"/><path class="cls-2" d="M623.41,363.56c6.17,22.87,10,79.83-24.42,114a4,4,0,0,1-6.81-2.51l-6.72-81.19a1.09,1.09,0,0,0-2.17,0L575.7,473a5.05,5.05,0,0,1-8.72,2.95c-32.48-34.32-31.18-90.61-22.81-112.37,6.94-18.06,29.42-53.82,38.84-63.74a1.09,1.09,0,0,1,1.56,0C594,309.74,617.8,342.72,623.41,363.56Z" transform="translate(-248.25 -115.39)"/><path class="cls-2" d="M545.17,831.72c3.08-.08,6.17-.16,9.22-.33C551.34,831.56,548.25,831.64,545.17,831.72Z" transform="translate(-248.25 -115.39)"/><path class="cls-5" d="M463.31,260a1.07,1.07,0,0,0-1.36-1.11l1.47-.42A292.09,292.09,0,0,1,785,381.59c.17.25.31.48.45.73a1.13,1.13,0,0,0-1.39-.09c-158.91,105.42-209,203.34-215.51,217.23a1.11,1.11,0,0,1-1.89.17C461.09,457.06,460.14,309.38,463.31,260ZM599,477.57c34.4-34.18,30.59-91.14,24.42-114-5.61-20.84-29.42-53.82-38.84-63.74a1.09,1.09,0,0,0-1.56,0c-9.42,9.92-31.9,45.68-38.84,63.74-8.37,21.76-9.67,78.05,22.81,112.37A5.05,5.05,0,0,0,575.7,473l7.59-79.13a1.09,1.09,0,0,1,2.17,0l6.72,81.19A4,4,0,0,0,599,477.57Z" transform="translate(-248.25 -115.39)"/><path class="cls-2" d="M661.2,669.56a1.1,1.1,0,0,1-1.67-1c1.34-22.14,24.48-47,41.88-62.74A61.36,61.36,0,0,1,742.56,590h35.31A1.11,1.11,0,0,1,779,591.1a62.14,62.14,0,0,1-14.67,40.12c-47.55,56.13-87.45,52.82-97.06,51a1.08,1.08,0,0,1-.44-1.92l38.92-31.62a1.11,1.11,0,0,0-1.05-1.92C692.88,651,667.93,665.59,661.2,669.56Z" transform="translate(-248.25 -115.39)"/><path class="cls-2" d="M540,831.75q-4.5,0-9-.17Q535.5,831.75,540,831.75Z" transform="translate(-248.25 -115.39)"/></g></svg>