<?xml version="1.0" encoding="utf-8"?>
<!-- Generator: Adobe Illustrator 23.1.0, SVG Export Plug-In . SVG Version: 6.00 Build 0)  -->
<svg version="1.1" xmlns="http://www.w3.org/2000/svg" xmlns:xlink="http://www.w3.org/1999/xlink" x="0px" y="0px"
	 viewBox="0 0 379.07 754.651" style="enable-background:new 0 0 379.07 754.651;" xml:space="preserve">
<style type="text/css">
	.st0{opacity:0.4;}
	.st1{opacity:0;}
	.st2{opacity:0.0164;}
	.st3{opacity:0.0328;}
	.st4{opacity:0.0492;}
	.st5{opacity:0.0656;}
	.st6{opacity:0.082;}
	.st7{opacity:0.0984;}
	.st8{opacity:0.1148;}
	.st9{opacity:0.1311;}
	.st10{opacity:0.1475;}
	.st11{opacity:0.1639;}
	.st12{opacity:0.1803;}
	.st13{opacity:0.1967;}
	.st14{opacity:0.2131;}
	.st15{opacity:0.2295;}
	.st16{opacity:0.2459;}
	.st17{opacity:0.2623;}
	.st18{opacity:0.2787;}
	.st19{opacity:0.2951;}
	.st20{opacity:0.3115;}
	.st21{opacity:0.3279;}
	.st22{opacity:0.3443;}
	.st23{opacity:0.3607;}
	.st24{opacity:0.377;}
	.st25{opacity:0.3934;}
	.st26{opacity:0.4098;}
	.st27{opacity:0.4262;}
	.st28{opacity:0.4426;}
	.st29{opacity:0.459;}
	.st30{opacity:0.4754;}
	.st31{opacity:0.4918;}
	.st32{opacity:0.5082;}
	.st33{opacity:0.5246;}
	.st34{opacity:0.541;}
	.st35{opacity:0.5574;}
	.st36{opacity:0.5738;}
	.st37{opacity:0.5902;}
	.st38{opacity:0.6066;}
	.st39{opacity:0.623;}
	.st40{opacity:0.6393;}
	.st41{opacity:0.6557;}
	.st42{opacity:0.6721;}
	.st43{opacity:0.6885;}
	.st44{opacity:0.7049;}
	.st45{opacity:0.7213;}
	.st46{opacity:0.7377;}
	.st47{opacity:0.7541;}
	.st48{opacity:0.7705;}
	.st49{opacity:0.7869;}
	.st50{opacity:0.8033;}
	.st51{opacity:0.8197;}
	.st52{opacity:0.8361;}
	.st53{opacity:0.8525;}
	.st54{opacity:0.8689;}
	.st55{opacity:0.8852;}
	.st56{opacity:0.9016;}
	.st57{opacity:0.918;}
	.st58{opacity:0.9344;}
	.st59{opacity:0.9508;}
	.st60{opacity:0.9672;}
	.st61{opacity:0.9836;}
	.st62{fill:#00000C;}
	.st63{fill:url(#SVGID_1_);}
	.st64{fill:url(#SVGID_2_);}
	.st65{fill:url(#SVGID_3_);}
	.st66{fill:url(#SVGID_4_);}
	.st67{fill:url(#SVGID_5_);}
	.st68{fill:url(#SVGID_6_);}
	.st69{fill:url(#SVGID_7_);}
	.st70{fill:url(#SVGID_8_);}
	.st71{fill:url(#SVGID_9_);}
	.st72{fill:url(#SVGID_10_);}
</style>
<g id="background">
</g>
<g id="shadow">
	<g class="st0">
		<path class="st1" d="M351.377,747.28c0.03-0.01,0.05-0.03,0.07-0.04c0.01,0,0.03-0.01,0.04-0.01
			C351.447,747.24,351.417,747.26,351.377,747.28z M333.757,20.94h-265.5c-27.4,0-49.62,22.21-49.62,49.61v636.82
			c0,27.4,22.22,49.61,49.62,49.61h265.5c27.4,0,49.62-22.21,49.62-49.61V70.55C383.377,43.151,361.157,20.94,333.757,20.94z"/>
		<path class="st2" d="M351.113,747.003c0.03-0.01,0.05-0.03,0.07-0.04c0.01,0,0.03-0.01,0.04-0.01
			C351.183,746.963,351.153,746.983,351.113,747.003z M333.493,20.663h-265.5c-27.4,0-49.62,22.21-49.62,49.61v636.82
			c0,27.4,22.22,49.61,49.62,49.61h265.5c27.4,0,49.62-22.21,49.62-49.61V70.273C383.113,42.873,360.893,20.663,333.493,20.663z"/>
		<path class="st3" d="M350.849,746.725c0.03-0.01,0.05-0.03,0.07-0.04c0.01,0,0.03-0.01,0.04-0.01
			C350.918,746.685,350.889,746.705,350.849,746.725z M333.228,20.385h-265.5c-27.4,0-49.62,22.21-49.62,49.61v636.82
			c0,27.4,22.22,49.61,49.62,49.61h265.5c27.4,0,49.62-22.21,49.62-49.61V69.995C382.849,42.595,360.628,20.385,333.228,20.385z"/>
		<path class="st4" d="M350.584,746.447c0.03-0.01,0.05-0.03,0.07-0.04c0.01,0,0.03-0.01,0.04-0.01
			C350.654,746.407,350.624,746.427,350.584,746.447z M332.964,20.107h-265.5c-27.4,0-49.62,22.21-49.62,49.61v636.82
			c0,27.4,22.22,49.61,49.62,49.61h265.5c27.4,0,49.62-22.21,49.62-49.61V69.717C382.584,42.318,360.364,20.107,332.964,20.107z"/>
		<path class="st5" d="M350.32,746.17c0.03-0.01,0.05-0.03,0.07-0.04c0.01,0,0.03-0.01,0.04-0.01
			C350.39,746.13,350.36,746.15,350.32,746.17z M332.7,19.83H67.2c-27.4,0-49.62,22.21-49.62,49.61v636.82
			c0,27.4,22.22,49.61,49.62,49.61h265.5c27.4,0,49.62-22.21,49.62-49.61V69.44C382.32,42.04,360.1,19.83,332.7,19.83z"/>
		<path class="st6" d="M350.056,745.892c0.03-0.01,0.05-0.03,0.07-0.04c0.01,0,0.03-0.01,0.04-0.01
			C350.125,745.852,350.096,745.872,350.056,745.892z M332.435,19.552h-265.5c-27.4,0-49.62,22.21-49.62,49.61v636.82
			c0,27.4,22.22,49.61,49.62,49.61h265.5c27.4,0,49.62-22.21,49.62-49.61V69.162C382.056,41.762,359.835,19.552,332.435,19.552z"/>
		<path class="st7" d="M349.791,745.614c0.03-0.01,0.05-0.03,0.07-0.04c0.01,0,0.03-0.01,0.04-0.01
			C349.861,745.574,349.831,745.594,349.791,745.614z M332.171,19.274h-265.5c-27.4,0-49.62,22.21-49.62,49.61v636.82
			c0,27.4,22.22,49.61,49.62,49.61h265.5c27.4,0,49.62-22.21,49.62-49.61V68.884C381.791,41.485,359.571,19.274,332.171,19.274z"/>
		<path class="st8" d="M349.527,745.337c0.03-0.01,0.05-0.03,0.07-0.04c0.01,0,0.03-0.01,0.04-0.01
			C349.597,745.297,349.567,745.317,349.527,745.337z M331.907,18.997h-265.5c-27.4,0-49.62,22.21-49.62,49.61v636.82
			c0,27.4,22.22,49.61,49.62,49.61h265.5c27.4,0,49.62-22.21,49.62-49.61V68.607C381.527,41.207,359.307,18.997,331.907,18.997z"/>
		<path class="st9" d="M349.263,745.059c0.03-0.01,0.05-0.03,0.07-0.04c0.01,0,0.03-0.01,0.04-0.01
			C349.332,745.019,349.303,745.039,349.263,745.059z M331.642,18.719h-265.5c-27.4,0-49.62,22.21-49.62,49.61v636.82
			c0,27.4,22.22,49.61,49.62,49.61h265.5c27.4,0,49.62-22.21,49.62-49.61V68.329C381.263,40.929,359.042,18.719,331.642,18.719z"/>
		<path class="st10" d="M348.998,744.781c0.03-0.01,0.05-0.03,0.07-0.04c0.01,0,0.03-0.01,0.04-0.01
			C349.068,744.741,349.038,744.761,348.998,744.781z M331.378,18.441h-265.5c-27.4,0-49.62,22.21-49.62,49.61v636.82
			c0,27.4,22.22,49.61,49.62,49.61h265.5c27.4,0,49.62-22.21,49.62-49.61V68.051C380.998,40.652,358.778,18.441,331.378,18.441z"/>
		<path class="st11" d="M348.734,744.504c0.03-0.01,0.05-0.03,0.07-0.04c0.01,0,0.03-0.01,0.04-0.01
			C348.804,744.464,348.774,744.484,348.734,744.504z M331.114,18.164h-265.5c-27.4,0-49.62,22.21-49.62,49.61v636.82
			c0,27.4,22.22,49.61,49.62,49.61h265.5c27.4,0,49.62-22.21,49.62-49.61V67.774C380.734,40.374,358.514,18.164,331.114,18.164z"/>
		<path class="st12" d="M348.47,744.226c0.03-0.01,0.05-0.03,0.07-0.04c0.01,0,0.03-0.01,0.04-0.01
			C348.539,744.186,348.51,744.206,348.47,744.226z M330.849,17.886h-265.5c-27.4,0-49.62,22.21-49.62,49.61v636.82
			c0,27.4,22.22,49.61,49.62,49.61h265.5c27.4,0,49.62-22.21,49.62-49.61V67.496C380.47,40.096,358.249,17.886,330.849,17.886z"/>
		<path class="st13" d="M348.205,743.948c0.03-0.01,0.05-0.03,0.07-0.04c0.01,0,0.03-0.01,0.04-0.01
			C348.275,743.908,348.245,743.928,348.205,743.948z M330.585,17.608h-265.5c-27.4,0-49.62,22.21-49.62,49.61v636.82
			c0,27.4,22.22,49.61,49.62,49.61h265.5c27.4,0,49.62-22.21,49.62-49.61V67.218C380.205,39.819,357.985,17.608,330.585,17.608z"/>
		<path class="st14" d="M347.941,743.671c0.03-0.01,0.05-0.03,0.07-0.04c0.01,0,0.03-0.01,0.04-0.01
			C348.011,743.631,347.981,743.651,347.941,743.671z M330.321,17.331h-265.5c-27.4,0-49.62,22.21-49.62,49.61v636.82
			c0,27.4,22.22,49.61,49.62,49.61h265.5c27.4,0,49.62-22.21,49.62-49.61V66.941C379.941,39.541,357.721,17.331,330.321,17.331z"/>
		<path class="st15" d="M347.677,743.393c0.03-0.01,0.05-0.03,0.07-0.04c0.01,0,0.03-0.01,0.04-0.01
			C347.746,743.353,347.717,743.373,347.677,743.393z M330.057,17.053h-265.5c-27.4,0-49.62,22.21-49.62,49.61v636.82
			c0,27.4,22.22,49.61,49.62,49.61h265.5c27.4,0,49.62-22.21,49.62-49.61V66.663C379.677,39.263,357.456,17.053,330.057,17.053z"/>
		<path class="st16" d="M347.412,743.115c0.03-0.01,0.05-0.03,0.07-0.04c0.01,0,0.03-0.01,0.04-0.01
			C347.482,743.075,347.452,743.095,347.412,743.115z M329.792,16.775h-265.5c-27.4,0-49.62,22.21-49.62,49.61v636.82
			c0,27.4,22.22,49.61,49.62,49.61h265.5c27.4,0,49.62-22.21,49.62-49.61V66.385C379.412,38.986,357.192,16.775,329.792,16.775z"/>
		<path class="st17" d="M347.148,742.838c0.03-0.01,0.05-0.03,0.07-0.04c0.01,0,0.03-0.01,0.04-0.01
			C347.218,742.798,347.188,742.818,347.148,742.838z M329.528,16.498h-265.5c-27.4,0-49.62,22.21-49.62,49.61v636.82
			c0,27.4,22.22,49.61,49.62,49.61h265.5c27.4,0,49.62-22.21,49.62-49.61V66.108C379.148,38.708,356.928,16.498,329.528,16.498z"/>
		<path class="st18" d="M346.884,742.56c0.03-0.01,0.05-0.03,0.07-0.04c0.01,0,0.03-0.01,0.04-0.01
			C346.953,742.52,346.924,742.54,346.884,742.56z M329.264,16.22h-265.5c-27.4,0-49.62,22.21-49.62,49.61v636.82
			c0,27.4,22.22,49.61,49.62,49.61h265.5c27.4,0,49.62-22.21,49.62-49.61V65.83C378.884,38.43,356.663,16.22,329.264,16.22z"/>
		<path class="st19" d="M346.619,742.282c0.03-0.01,0.05-0.03,0.07-0.04c0.01,0,0.03-0.01,0.04-0.01
			C346.689,742.242,346.659,742.262,346.619,742.282z M328.999,15.942h-265.5c-27.4,0-49.62,22.21-49.62,49.61v636.82
			c0,27.4,22.22,49.61,49.62,49.61h265.5c27.4,0,49.62-22.21,49.62-49.61V65.552C378.619,38.153,356.399,15.942,328.999,15.942z"/>
		<path class="st20" d="M346.355,742.005c0.03-0.01,0.05-0.03,0.07-0.04c0.01,0,0.03-0.01,0.04-0.01
			C346.425,741.965,346.395,741.985,346.355,742.005z M328.735,15.665h-265.5c-27.4,0-49.62,22.21-49.62,49.61v636.82
			c0,27.4,22.22,49.61,49.62,49.61h265.5c27.4,0,49.62-22.21,49.62-49.61V65.275C378.355,37.875,356.135,15.665,328.735,15.665z"/>
		<path class="st21" d="M346.091,741.727c0.03-0.01,0.05-0.03,0.07-0.04c0.01,0,0.03-0.01,0.04-0.01
			C346.161,741.687,346.131,741.707,346.091,741.727z M328.471,15.387h-265.5c-27.4,0-49.62,22.21-49.62,49.61v636.82
			c0,27.4,22.22,49.61,49.62,49.61h265.5c27.4,0,49.62-22.21,49.62-49.61V64.997C378.091,37.597,355.87,15.387,328.471,15.387z"/>
		<path class="st22" d="M345.826,741.449c0.03-0.01,0.05-0.03,0.07-0.04c0.01,0,0.03-0.01,0.04-0.01
			C345.896,741.409,345.866,741.429,345.826,741.449z M328.206,15.109h-265.5c-27.4,0-49.62,22.21-49.62,49.61v636.82
			c0,27.4,22.22,49.61,49.62,49.61h265.5c27.4,0,49.62-22.21,49.62-49.61V64.719C377.826,37.319,355.606,15.109,328.206,15.109z"/>
		<path class="st23" d="M345.562,741.172c0.03-0.01,0.05-0.03,0.07-0.04c0.01,0,0.03-0.01,0.04-0.01
			C345.632,741.132,345.602,741.152,345.562,741.172z M327.942,14.832h-265.5c-27.4,0-49.62,22.21-49.62,49.61v636.82
			c0,27.4,22.22,49.61,49.62,49.61h265.5c27.4,0,49.62-22.21,49.62-49.61V64.442C377.562,37.042,355.342,14.832,327.942,14.832z"/>
		<path class="st24" d="M345.298,740.894c0.03-0.01,0.05-0.03,0.07-0.04c0.01,0,0.03-0.01,0.04-0.01
			C345.368,740.854,345.338,740.874,345.298,740.894z M327.678,14.554h-265.5c-27.4,0-49.62,22.21-49.62,49.61v636.82
			c0,27.4,22.22,49.61,49.62,49.61h265.5c27.4,0,49.62-22.21,49.62-49.61V64.164C377.298,36.764,355.078,14.554,327.678,14.554z"/>
		<path class="st25" d="M345.033,740.616c0.03-0.01,0.05-0.03,0.07-0.04c0.01,0,0.03-0.01,0.04-0.01
			C345.103,740.576,345.073,740.596,345.033,740.616z M327.413,14.276h-265.5c-27.4,0-49.62,22.21-49.62,49.61v636.82
			c0,27.4,22.22,49.61,49.62,49.61h265.5c27.4,0,49.62-22.21,49.62-49.61V63.886C377.033,36.486,354.813,14.276,327.413,14.276z"/>
		<path class="st26" d="M344.769,740.339c0.03-0.01,0.05-0.03,0.07-0.04c0.01,0,0.03-0.01,0.04-0.01
			C344.839,740.299,344.809,740.319,344.769,740.339z M327.149,13.999h-265.5c-27.4,0-49.62,22.21-49.62,49.61v636.82
			c0,27.4,22.22,49.61,49.62,49.61h265.5c27.4,0,49.62-22.21,49.62-49.61V63.609C376.769,36.209,354.549,13.999,327.149,13.999z"/>
		<path class="st27" d="M344.505,740.061c0.03-0.01,0.05-0.03,0.07-0.04c0.01,0,0.03-0.01,0.04-0.01
			C344.575,740.021,344.545,740.041,344.505,740.061z M326.885,13.721h-265.5c-27.4,0-49.62,22.21-49.62,49.61v636.82
			c0,27.4,22.22,49.61,49.62,49.61h265.5c27.4,0,49.62-22.21,49.62-49.61V63.331C376.505,35.931,354.285,13.721,326.885,13.721z"/>
		<path class="st28" d="M344.24,739.783c0.03-0.01,0.05-0.03,0.07-0.04c0.01,0,0.03-0.01,0.04-0.01
			C344.31,739.743,344.28,739.763,344.24,739.783z M326.62,13.443H61.12c-27.4,0-49.62,22.21-49.62,49.61v636.82
			c0,27.4,22.22,49.61,49.62,49.61h265.5c27.4,0,49.62-22.21,49.62-49.61V63.053C376.24,35.653,354.02,13.443,326.62,13.443z"/>
		<path class="st29" d="M343.976,739.506c0.03-0.01,0.05-0.03,0.07-0.04c0.01,0,0.03-0.01,0.04-0.01
			C344.046,739.466,344.016,739.486,343.976,739.506z M326.356,13.166h-265.5c-27.4,0-49.62,22.21-49.62,49.61v636.82
			c0,27.4,22.22,49.61,49.62,49.61h265.5c27.4,0,49.62-22.21,49.62-49.61V62.776C375.976,35.376,353.756,13.166,326.356,13.166z"/>
		<path class="st30" d="M343.712,739.228c0.03-0.01,0.05-0.03,0.07-0.04c0.01,0,0.03-0.01,0.04-0.01
			C343.782,739.188,343.752,739.208,343.712,739.228z M326.092,12.888h-265.5c-27.4,0-49.62,22.21-49.62,49.61v636.82
			c0,27.4,22.22,49.61,49.62,49.61h265.5c27.4,0,49.62-22.21,49.62-49.61V62.498C375.712,35.098,353.492,12.888,326.092,12.888z"/>
		<path class="st31" d="M343.447,738.95c0.03-0.01,0.05-0.03,0.07-0.04c0.01,0,0.03-0.01,0.04-0.01
			C343.517,738.91,343.487,738.93,343.447,738.95z M325.827,12.61h-265.5c-27.4,0-49.62,22.21-49.62,49.61v636.82
			c0,27.4,22.22,49.61,49.62,49.61h265.5c27.4,0,49.62-22.21,49.62-49.61V62.22C375.447,34.82,353.227,12.61,325.827,12.61z"/>
		<path class="st32" d="M343.183,738.673c0.03-0.01,0.05-0.03,0.07-0.04c0.01,0,0.03-0.01,0.04-0.01
			C343.253,738.633,343.223,738.653,343.183,738.673z M325.563,12.333h-265.5c-27.4,0-49.62,22.21-49.62,49.61v636.82
			c0,27.4,22.22,49.61,49.62,49.61h265.5c27.4,0,49.62-22.21,49.62-49.61V61.943C375.183,34.543,352.963,12.333,325.563,12.333z"/>
		<path class="st33" d="M342.919,738.395c0.03-0.01,0.05-0.03,0.07-0.04c0.01,0,0.03-0.01,0.04-0.01
			C342.989,738.355,342.959,738.375,342.919,738.395z M325.299,12.055h-265.5c-27.4,0-49.62,22.21-49.62,49.61v636.82
			c0,27.4,22.22,49.61,49.62,49.61h265.5c27.4,0,49.62-22.21,49.62-49.61V61.665C374.919,34.265,352.699,12.055,325.299,12.055z"/>
		<path class="st34" d="M342.654,738.117c0.03-0.01,0.05-0.03,0.07-0.04c0.01,0,0.03-0.01,0.04-0.01
			C342.724,738.077,342.695,738.097,342.654,738.117z M325.034,11.777h-265.5c-27.4,0-49.62,22.21-49.62,49.61v636.82
			c0,27.4,22.22,49.61,49.62,49.61h265.5c27.4,0,49.62-22.21,49.62-49.61V61.387C374.654,33.987,352.434,11.777,325.034,11.777z"/>
		<path class="st35" d="M342.39,737.84c0.03-0.01,0.05-0.03,0.07-0.04c0.01,0,0.03-0.01,0.04-0.01
			C342.46,737.8,342.43,737.82,342.39,737.84z M324.77,11.5H59.27c-27.4,0-49.62,22.21-49.62,49.61v636.82
			c0,27.4,22.22,49.61,49.62,49.61h265.5c27.4,0,49.62-22.21,49.62-49.61V61.11C374.39,33.71,352.17,11.5,324.77,11.5z"/>
		<path class="st36" d="M342.126,737.562c0.03-0.01,0.05-0.03,0.07-0.04c0.01,0,0.03-0.01,0.04-0.01
			C342.196,737.522,342.166,737.542,342.126,737.562z M324.506,11.222h-265.5c-27.4,0-49.62,22.21-49.62,49.61v636.82
			c0,27.4,22.22,49.61,49.62,49.61h265.5c27.4,0,49.62-22.21,49.62-49.61V60.832C374.126,33.432,351.906,11.222,324.506,11.222z"/>
		<path class="st37" d="M341.862,737.284c0.03-0.01,0.05-0.03,0.07-0.04c0.01,0,0.03-0.01,0.04-0.01
			C341.931,737.244,341.902,737.264,341.862,737.284z M324.241,10.944h-265.5c-27.4,0-49.62,22.21-49.62,49.61v636.82
			c0,27.4,22.22,49.61,49.62,49.61h265.5c27.4,0,49.62-22.21,49.62-49.61V60.554C373.862,33.154,351.641,10.944,324.241,10.944z"/>
		<path class="st38" d="M341.597,737.007c0.03-0.01,0.05-0.03,0.07-0.04c0.01,0,0.03-0.01,0.04-0.01
			C341.667,736.967,341.637,736.987,341.597,737.007z M323.977,10.667h-265.5c-27.4,0-49.62,22.21-49.62,49.61v636.82
			c0,27.4,22.22,49.61,49.62,49.61h265.5c27.4,0,49.62-22.21,49.62-49.61V60.277C373.597,32.877,351.377,10.667,323.977,10.667z"/>
		<path class="st39" d="M341.333,736.729c0.03-0.01,0.05-0.03,0.07-0.04c0.01,0,0.03-0.01,0.04-0.01
			C341.403,736.689,341.373,736.709,341.333,736.729z M323.713,10.389h-265.5c-27.4,0-49.62,22.21-49.62,49.61v636.82
			c0,27.4,22.22,49.61,49.62,49.61h265.5c27.4,0,49.62-22.21,49.62-49.61V59.999C373.333,32.599,351.113,10.389,323.713,10.389z"/>
		<path class="st40" d="M341.069,736.451c0.03-0.01,0.05-0.03,0.07-0.04c0.01,0,0.03-0.01,0.04-0.01
			C341.138,736.411,341.109,736.431,341.069,736.451z M323.448,10.111h-265.5c-27.4,0-49.62,22.21-49.62,49.61v636.82
			c0,27.4,22.22,49.61,49.62,49.61h265.5c27.4,0,49.62-22.21,49.62-49.61V59.721C373.069,32.321,350.848,10.111,323.448,10.111z"/>
		<path class="st41" d="M340.804,736.174c0.03-0.01,0.05-0.03,0.07-0.04c0.01,0,0.03-0.01,0.04-0.01
			C340.874,736.134,340.844,736.154,340.804,736.174z M323.184,9.834h-265.5c-27.4,0-49.62,22.21-49.62,49.61v636.82
			c0,27.4,22.22,49.61,49.62,49.61h265.5c27.4,0,49.62-22.21,49.62-49.61V59.444C372.804,32.044,350.584,9.834,323.184,9.834z"/>
		<path class="st42" d="M340.54,735.896c0.03-0.01,0.05-0.03,0.07-0.04c0.01,0,0.03-0.01,0.04-0.01
			C340.61,735.856,340.58,735.876,340.54,735.896z M322.92,9.556H57.42c-27.4,0-49.62,22.21-49.62,49.61v636.82
			c0,27.4,22.22,49.61,49.62,49.61h265.5c27.4,0,49.62-22.21,49.62-49.61V59.166C372.54,31.766,350.32,9.556,322.92,9.556z"/>
		<path class="st43" d="M340.276,735.618c0.03-0.01,0.05-0.03,0.07-0.04c0.01,0,0.03-0.01,0.04-0.01
			C340.345,735.578,340.316,735.598,340.276,735.618z M322.655,9.278h-265.5c-27.4,0-49.62,22.21-49.62,49.61v636.82
			c0,27.4,22.22,49.61,49.62,49.61h265.5c27.4,0,49.62-22.21,49.62-49.61V58.888C372.276,31.488,350.055,9.278,322.655,9.278z"/>
		<path class="st44" d="M340.011,735.341c0.03-0.01,0.05-0.03,0.07-0.04c0.01,0,0.03-0.01,0.04-0.01
			C340.081,735.301,340.051,735.321,340.011,735.341z M322.391,9.001h-265.5c-27.4,0-49.62,22.21-49.62,49.61v636.82
			c0,27.4,22.22,49.61,49.62,49.61h265.5c27.4,0,49.62-22.21,49.62-49.61V58.611C372.011,31.211,349.791,9.001,322.391,9.001z"/>
		<path class="st45" d="M339.747,735.063c0.03-0.01,0.05-0.03,0.07-0.04c0.01,0,0.03-0.01,0.04-0.01
			C339.817,735.023,339.787,735.043,339.747,735.063z M322.127,8.723h-265.5c-27.4,0-49.62,22.21-49.62,49.61v636.82
			c0,27.4,22.22,49.61,49.62,49.61h265.5c27.4,0,49.62-22.21,49.62-49.61V58.333C371.747,30.933,349.527,8.723,322.127,8.723z"/>
		<path class="st46" d="M339.483,734.785c0.03-0.01,0.05-0.03,0.07-0.04c0.01,0,0.03-0.01,0.04-0.01
			C339.552,734.745,339.523,734.765,339.483,734.785z M321.862,8.445h-265.5c-27.4,0-49.62,22.21-49.62,49.61v636.82
			c0,27.4,22.22,49.61,49.62,49.61h265.5c27.4,0,49.62-22.21,49.62-49.61V58.055C371.483,30.655,349.262,8.445,321.862,8.445z"/>
		<path class="st47" d="M339.218,734.508c0.03-0.01,0.05-0.03,0.07-0.04c0.01,0,0.03-0.01,0.04-0.01
			C339.288,734.468,339.258,734.488,339.218,734.508z M321.598,8.168h-265.5c-27.4,0-49.62,22.21-49.62,49.61v636.82
			c0,27.4,22.22,49.61,49.62,49.61h265.5c27.4,0,49.62-22.21,49.62-49.61V57.778C371.218,30.378,348.998,8.168,321.598,8.168z"/>
		<path class="st48" d="M338.954,734.23c0.03-0.01,0.05-0.03,0.07-0.04c0.01,0,0.03-0.01,0.04-0.01
			C339.024,734.19,338.994,734.21,338.954,734.23z M321.334,7.89h-265.5c-27.4,0-49.62,22.21-49.62,49.61v636.82
			c0,27.4,22.22,49.61,49.62,49.61h265.5c27.4,0,49.62-22.21,49.62-49.61V57.5C370.954,30.1,348.734,7.89,321.334,7.89z"/>
		<path class="st49" d="M338.69,733.952c0.03-0.01,0.05-0.03,0.07-0.04c0.01,0,0.03-0.01,0.04-0.01
			C338.759,733.912,338.73,733.932,338.69,733.952z M321.07,7.612H55.57c-27.4,0-49.62,22.21-49.62,49.61v636.82
			c0,27.4,22.22,49.61,49.62,49.61h265.5c27.4,0,49.62-22.21,49.62-49.61V57.222C370.69,29.822,348.469,7.612,321.07,7.612z"/>
		<path class="st50" d="M338.425,733.675c0.03-0.01,0.05-0.03,0.07-0.04c0.01,0,0.03-0.01,0.04-0.01
			C338.495,733.635,338.465,733.655,338.425,733.675z M320.805,7.335h-265.5c-27.4,0-49.62,22.21-49.62,49.61v636.82
			c0,27.4,22.22,49.61,49.62,49.61h265.5c27.4,0,49.62-22.21,49.62-49.61V56.945C370.425,29.545,348.205,7.335,320.805,7.335z"/>
		<path class="st51" d="M338.161,733.397c0.03-0.01,0.05-0.03,0.07-0.04c0.01,0,0.03-0.01,0.04-0.01
			C338.231,733.357,338.201,733.377,338.161,733.397z M320.541,7.057h-265.5c-27.4,0-49.62,22.21-49.62,49.61v636.82
			c0,27.4,22.22,49.61,49.62,49.61h265.5c27.4,0,49.62-22.21,49.62-49.61V56.667C370.161,29.267,347.941,7.057,320.541,7.057z"/>
		<path class="st52" d="M337.897,733.119c0.03-0.01,0.05-0.03,0.07-0.04c0.01,0,0.03-0.01,0.04-0.01
			C337.966,733.079,337.937,733.099,337.897,733.119z M320.277,6.779h-265.5c-27.4,0-49.62,22.21-49.62,49.61v636.82
			c0,27.4,22.22,49.61,49.62,49.61h265.5c27.4,0,49.62-22.21,49.62-49.61V56.389C369.897,28.989,347.676,6.779,320.277,6.779z"/>
		<path class="st53" d="M337.632,732.842c0.03-0.01,0.05-0.03,0.07-0.04c0.01,0,0.03-0.01,0.04-0.01
			C337.702,732.802,337.672,732.822,337.632,732.842z M320.012,6.502h-265.5c-27.4,0-49.62,22.21-49.62,49.61v636.82
			c0,27.4,22.22,49.61,49.62,49.61h265.5c27.4,0,49.62-22.21,49.62-49.61V56.112C369.632,28.712,347.412,6.502,320.012,6.502z"/>
		<path class="st54" d="M337.368,732.564c0.03-0.01,0.05-0.03,0.07-0.04c0.01,0,0.03-0.01,0.04-0.01
			C337.438,732.524,337.408,732.544,337.368,732.564z M319.748,6.224h-265.5c-27.4,0-49.62,22.21-49.62,49.61v636.82
			c0,27.4,22.22,49.61,49.62,49.61h265.5c27.4,0,49.62-22.21,49.62-49.61V55.834C369.368,28.434,347.148,6.224,319.748,6.224z"/>
		<path class="st55" d="M337.104,732.286c0.03-0.01,0.05-0.03,0.07-0.04c0.01,0,0.03-0.01,0.04-0.01
			C337.174,732.246,337.144,732.266,337.104,732.286z M319.484,5.946h-265.5c-27.4,0-49.62,22.21-49.62,49.61v636.82
			c0,27.4,22.22,49.61,49.62,49.61h265.5c27.4,0,49.62-22.21,49.62-49.61V55.556C369.104,28.156,346.883,5.946,319.484,5.946z"/>
		<path class="st56" d="M336.839,732.009c0.03-0.01,0.05-0.03,0.07-0.04c0.01,0,0.03-0.01,0.04-0.01
			C336.909,731.969,336.879,731.989,336.839,732.009z M319.219,5.669h-265.5c-27.4,0-49.62,22.21-49.62,49.61v636.82
			c0,27.4,22.22,49.61,49.62,49.61h265.5c27.4,0,49.62-22.21,49.62-49.61V55.279C368.839,27.879,346.619,5.669,319.219,5.669z"/>
		<path class="st57" d="M336.575,731.731c0.03-0.01,0.05-0.03,0.07-0.04c0.01,0,0.03-0.01,0.04-0.01
			C336.645,731.691,336.615,731.711,336.575,731.731z M318.955,5.391h-265.5c-27.4,0-49.62,22.21-49.62,49.61v636.82
			c0,27.4,22.22,49.61,49.62,49.61h265.5c27.4,0,49.62-22.21,49.62-49.61V55.001C368.575,27.601,346.355,5.391,318.955,5.391z"/>
		<path class="st58" d="M336.311,731.453c0.03-0.01,0.05-0.03,0.07-0.04c0.01,0,0.03-0.01,0.04-0.01
			C336.381,731.413,336.351,731.433,336.311,731.453z M318.691,5.113h-265.5c-27.4,0-49.62,22.21-49.62,49.61v636.82
			c0,27.4,22.22,49.61,49.62,49.61h265.5c27.4,0,49.62-22.21,49.62-49.61V54.723C368.311,27.323,346.091,5.113,318.691,5.113z"/>
		<path class="st59" d="M336.046,731.176c0.03-0.01,0.05-0.03,0.07-0.04c0.01,0,0.03-0.01,0.04-0.01
			C336.116,731.135,336.086,731.156,336.046,731.176z M318.426,4.835h-265.5c-27.4,0-49.62,22.21-49.62,49.61v636.82
			c0,27.4,22.22,49.61,49.62,49.61h265.5c27.4,0,49.62-22.21,49.62-49.61V54.446C368.046,27.046,345.826,4.835,318.426,4.835z"/>
		<path class="st60" d="M335.782,730.898c0.03-0.01,0.05-0.03,0.07-0.04c0.01,0,0.03-0.01,0.04-0.01
			C335.852,730.858,335.822,730.878,335.782,730.898z M318.162,4.558h-265.5c-27.4,0-49.62,22.21-49.62,49.61v636.82
			c0,27.4,22.22,49.61,49.62,49.61h265.5c27.4,0,49.62-22.21,49.62-49.61V54.168C367.782,26.768,345.562,4.558,318.162,4.558z"/>
		<path class="st61" d="M335.518,730.62c0.03-0.01,0.05-0.03,0.07-0.04c0.01,0,0.03-0.01,0.04-0.01
			C335.588,730.58,335.558,730.6,335.518,730.62z M317.898,4.28h-265.5c-27.4,0-49.62,22.21-49.62,49.61v636.82
			c0,27.4,22.22,49.61,49.62,49.61h265.5c27.4,0,49.62-22.21,49.62-49.61V53.89C367.518,26.49,345.298,4.28,317.898,4.28z"/>
		<path d="M335.253,730.343c0.03-0.01,0.05-0.03,0.07-0.04c0.01,0,0.03-0.01,0.04-0.01
			C335.323,730.303,335.293,730.323,335.253,730.343z M317.633,4.002h-265.5c-27.4,0-49.62,22.21-49.62,49.61v636.82
			c0,27.4,22.22,49.61,49.62,49.61h265.5c27.4,0,49.62-22.21,49.62-49.61V53.613C367.253,26.213,345.033,4.002,317.633,4.002z"/>
	</g>
</g>
<g id="object">
	<g>
		<g>
			<g>
				<g>
					<g>
						<path class="st62" d="M317.636,4.101H52.131c-27.402,0-49.618,22.216-49.618,49.618V690.53
							c0,27.402,22.216,49.618,49.618,49.618h265.505c27.402,0,49.618-22.216,49.618-49.618V53.718
							C367.254,26.317,345.038,4.101,317.636,4.101z M365.872,685.925c0,5.167-0.82,10.15-2.33,14.82
							c-0.111,0.359-0.23,0.719-0.359,1.068c-0.12,0.359-0.249,0.709-0.387,1.059c-0.092,0.267-0.194,0.534-0.304,0.792
							c-0.313,0.783-0.645,1.557-0.995,2.321c-0.157,0.341-0.313,0.682-0.479,1.013c-0.23,0.47-0.461,0.93-0.709,1.391
							c-0.157,0.313-0.322,0.617-0.497,0.921c-0.175,0.322-0.359,0.645-0.553,0.967c-0.516,0.884-1.068,1.759-1.649,2.616
							c-0.184,0.267-0.368,0.543-0.562,0.811c-0.212,0.304-0.424,0.599-0.654,0.893c-0.212,0.295-0.433,0.589-0.663,0.884
							c-0.221,0.295-0.451,0.58-0.691,0.866c-0.23,0.286-0.47,0.571-0.718,0.857c-0.47,0.562-0.967,1.115-1.474,1.649
							c-0.774,0.829-1.575,1.63-2.413,2.413c-0.249,0.23-0.497,0.461-0.755,0.682c-0.58,0.516-1.17,1.013-1.768,1.51
							c-0.258,0.203-0.525,0.414-0.792,0.617c-0.875,0.682-1.778,1.326-2.699,1.943c-0.304,0.212-0.617,0.414-0.93,0.608
							c-0.626,0.405-1.262,0.783-1.907,1.151c-0.322,0.193-0.635,0.368-0.958,0.534c-1.041,0.571-2.1,1.105-3.187,1.584
							c-0.285,0.138-0.571,0.258-0.857,0.378c-0.341,0.157-0.682,0.295-1.031,0.433c-0.35,0.138-0.7,0.276-1.05,0.405
							c-0.783,0.295-1.575,0.571-2.376,0.82c-0.276,0.092-0.562,0.175-0.847,0.258c-1.05,0.313-2.128,0.59-3.215,0.829
							c-0.378,0.083-0.755,0.166-1.142,0.239c-0.396,0.083-0.801,0.157-1.216,0.221c-0.746,0.129-1.501,0.239-2.266,0.332h-0.028
							c-0.147,0.018-0.295,0.037-0.442,0.046c-0.101,0.018-0.212,0.028-0.313,0.028c-0.046,0.009-0.083,0.009-0.129,0.009
							c0.682-0.074,1.354-0.166,2.026-0.276c0.332-0.055,0.663-0.11,1.004-0.175c0.332-0.055,0.663-0.129,0.986-0.193
							c0.995-0.203,1.971-0.451,2.938-0.718c0.323-0.083,0.645-0.184,0.958-0.286c0.635-0.193,1.262-0.405,1.888-0.626
							c0.94-0.341,1.861-0.709,2.763-1.105c0.304-0.12,0.608-0.258,0.903-0.405c0.295-0.138,0.589-0.286,0.884-0.424
							c0.59-0.295,1.17-0.599,1.75-0.912c0.571-0.322,1.133-0.645,1.695-0.985c0.507-0.313,1.004-0.636,1.501-0.958
							c0.055-0.028,0.101-0.064,0.147-0.101c0.811-0.553,1.603-1.124,2.376-1.722c0.258-0.193,0.516-0.396,0.764-0.608
							c0.718-0.58,1.418-1.188,2.1-1.815c1.676-1.557,3.242-3.233,4.651-5.029c0.203-0.249,0.405-0.516,0.599-0.774
							c2.045-2.708,3.786-5.655,5.158-8.787c0.221-0.497,0.433-1.013,0.626-1.52c0.976-2.478,1.741-5.066,2.247-7.746
							c0.101-0.525,0.193-1.059,0.276-1.593c0.322-2.155,0.497-4.357,0.497-6.604V53.718c0-22.502-17.122-41.079-39.016-43.4
							c-0.387-0.037-0.783-0.074-1.17-0.101c-0.396-0.028-0.801-0.055-1.197-0.074h-0.009c-0.746-0.037-1.483-0.055-2.238-0.055
							H52.14c-0.755,0-1.501,0.018-2.238,0.055h-0.028C26.857,11.331,8.501,30.425,8.501,53.718V690.53
							c0,22.407,16.971,40.917,38.732,43.365c-0.295-0.03-0.591-0.049-0.885-0.084h-0.028c-0.764-0.092-1.52-0.203-2.266-0.332
							c-4.55-0.774-8.888-2.183-12.913-4.136c-0.285-0.138-0.562-0.276-0.847-0.414c-0.719-0.378-1.428-0.755-2.128-1.161
							c-0.322-0.184-0.635-0.368-0.949-0.562c-1.584-0.958-3.113-2.008-4.568-3.141c-0.267-0.203-0.525-0.405-0.783-0.617
							c-0.774-0.626-1.529-1.271-2.257-1.934c-0.24-0.221-0.479-0.442-0.709-0.672c-0.276-0.258-0.543-0.516-0.81-0.783
							c-0.258-0.267-0.525-0.534-0.783-0.801c-0.175-0.175-0.341-0.35-0.507-0.534c-0.212-0.23-0.424-0.461-0.626-0.691
							c-1.234-1.382-2.385-2.828-3.454-4.338c-0.193-0.267-0.378-0.543-0.562-0.811c-0.58-0.847-1.124-1.713-1.639-2.597
							c-0.194-0.313-0.378-0.635-0.553-0.958c-1.335-2.395-2.468-4.909-3.38-7.516c-0.129-0.359-0.249-0.709-0.359-1.068
							c-0.58-1.805-1.059-3.647-1.428-5.526c-0.074-0.378-0.147-0.755-0.212-1.133c-0.451-2.653-0.691-5.379-0.691-8.161V53.718
							c0-0.479,0.009-0.949,0.028-1.418c0-0.359,0.018-0.709,0.037-1.059c0.037-0.774,0.092-1.538,0.175-2.303
							c0.037-0.396,0.083-0.792,0.129-1.179c0.028-0.212,0.055-0.414,0.083-0.626c0.028-0.249,0.064-0.497,0.111-0.755
							c0.055-0.396,0.12-0.792,0.193-1.188c0.12-0.691,0.258-1.372,0.415-2.045c0.074-0.341,0.157-0.672,0.24-1.004
							c0.24-1.004,0.516-1.98,0.829-2.957c0.101-0.304,0.203-0.617,0.304-0.921c0.129-0.378,0.258-0.755,0.396-1.124
							c0.11-0.313,0.23-0.617,0.35-0.921c0.101-0.258,0.193-0.507,0.304-0.755c0.12-0.304,0.249-0.608,0.378-0.903
							c0.102-0.23,0.194-0.451,0.304-0.672c0.147-0.332,0.295-0.654,0.461-0.986c0.267-0.571,0.553-1.142,0.856-1.704
							c0.147-0.286,0.304-0.571,0.47-0.857c0.175-0.332,0.368-0.663,0.562-0.986c1.335-2.275,2.855-4.43,4.541-6.457
							c0.24-0.286,0.479-0.571,0.728-0.857c0.276-0.313,0.553-0.635,0.847-0.949c0.479-0.516,0.958-1.022,1.455-1.51
							c0.534-0.534,1.078-1.05,1.63-1.557c0.562-0.497,1.124-0.995,1.704-1.474c0.285-0.239,0.58-0.47,0.875-0.709
							c0.59-0.461,1.188-0.912,1.805-1.354c0.608-0.433,1.225-0.857,1.861-1.271c0.635-0.405,1.271-0.801,1.925-1.179
							c0.323-0.193,0.654-0.378,0.986-0.562c0.332-0.184,0.663-0.359,0.995-0.534c0.341-0.175,0.672-0.35,1.013-0.516
							c0.341-0.166,0.682-0.332,1.032-0.497c0.682-0.313,1.382-0.617,2.091-0.903c0.331-0.138,0.672-0.276,1.013-0.405
							c0.028-0.018,0.064-0.028,0.092-0.037c0.341-0.129,0.691-0.249,1.032-0.378c0.341-0.111,0.682-0.23,1.022-0.35
							c0.387-0.12,0.774-0.249,1.17-0.359c0.368-0.111,0.737-0.212,1.105-0.313c0.378-0.101,0.746-0.203,1.124-0.295
							c0.378-0.092,0.755-0.184,1.133-0.267c0.764-0.175,1.529-0.322,2.303-0.451c0.378-0.064,0.764-0.129,1.151-0.184
							c0.829-0.12,1.667-0.221,2.505-0.295c0.663-0.064,1.336-0.111,2.008-0.147c0.405-0.018,0.82-0.037,1.234-0.046
							c0.414-0.009,0.829-0.018,1.243-0.018h265.496c0.414,0,0.829,0.009,1.243,0.018c0.341,0.009,0.691,0.019,1.032,0.037
							c0.783,0.037,1.557,0.092,2.33,0.166h0.028c0.396,0.037,0.783,0.083,1.17,0.129c0.396,0.046,0.783,0.101,1.17,0.157
							c0.387,0.055,0.774,0.12,1.16,0.184c0.387,0.065,0.764,0.138,1.142,0.212c0.009-0.009,0.018-0.009,0.018,0
							c0.378,0.074,0.755,0.156,1.133,0.239c0.35,0.074,0.691,0.157,1.032,0.23c0.083,0.018,0.157,0.037,0.221,0.055
							c0.322,0.083,0.645,0.166,0.967,0.258c0.451,0.12,0.903,0.249,1.345,0.387c0.304,0.092,0.608,0.184,0.903,0.285
							c0.672,0.221,1.336,0.451,1.999,0.7c0.451,0.156,0.893,0.332,1.326,0.516c0.322,0.129,0.636,0.267,0.958,0.405
							c0.35,0.147,0.691,0.304,1.041,0.47c0.341,0.156,0.682,0.322,1.022,0.488c2.432,1.188,4.734,2.579,6.908,4.154
							c0.267,0.184,0.534,0.378,0.792,0.58c0.958,0.718,1.879,1.464,2.772,2.247c0.396,0.341,0.783,0.691,1.161,1.05
							c1.557,1.446,3.012,2.993,4.347,4.624c0.249,0.295,0.479,0.58,0.709,0.875c0.488,0.617,0.949,1.234,1.391,1.861
							c0.23,0.313,0.451,0.635,0.663,0.958c0.378,0.543,0.737,1.105,1.087,1.667c0.175,0.286,0.341,0.571,0.516,0.857
							c0.313,0.544,0.626,1.087,0.921,1.649c0.147,0.267,0.295,0.534,0.424,0.811c0.488,0.93,0.93,1.87,1.354,2.837
							c0.101,0.249,0.212,0.497,0.313,0.755c0.396,0.958,0.765,1.934,1.096,2.92c0.129,0.368,0.249,0.728,0.359,1.096
							c0.663,2.118,1.179,4.292,1.547,6.512c0.037,0.23,0.074,0.47,0.111,0.718c0.055,0.387,0.111,0.774,0.157,1.16
							c0.046,0.396,0.092,0.783,0.129,1.179c0.046,0.396,0.074,0.792,0.111,1.188c0.046,0.728,0.083,1.455,0.101,2.192
							c0.018,0.47,0.028,0.939,0.028,1.409V685.925z"/>
						<g>
							<linearGradient id="SVGID_1_" gradientUnits="userSpaceOnUse" x1="3.8952" y1="372.0368" x2="9.2403" y2="372.0368">
								<stop  offset="0" style="stop-color:#666666"/>
								<stop  offset="1" style="stop-color:#000000"/>
							</linearGradient>
							<path class="st63" d="M47.508,733.931c-0.387-0.037-0.774-0.074-1.161-0.12h-0.028c-0.764-0.092-1.52-0.203-2.266-0.332
								c-4.55-0.774-8.888-2.183-12.913-4.136c-0.285-0.138-0.562-0.276-0.847-0.414c-0.719-0.378-1.428-0.755-2.128-1.161
								c-0.322-0.184-0.635-0.368-0.949-0.562c-1.584-0.958-3.113-2.008-4.568-3.141c-0.267-0.203-0.525-0.405-0.783-0.617
								c-0.774-0.626-1.529-1.271-2.257-1.934c-0.24-0.221-0.479-0.442-0.709-0.672c-0.276-0.258-0.543-0.516-0.81-0.783
								c-0.258-0.267-0.525-0.534-0.783-0.801c-0.175-0.175-0.341-0.35-0.507-0.534c-0.212-0.23-0.424-0.461-0.626-0.691
								c-1.234-1.382-2.385-2.828-3.454-4.338c-0.193-0.267-0.378-0.543-0.562-0.811c-0.58-0.847-1.124-1.713-1.639-2.597
								c-0.194-0.313-0.378-0.635-0.553-0.958c-1.335-2.395-2.468-4.909-3.38-7.516c-0.129-0.359-0.249-0.709-0.359-1.068
								c-0.58-1.805-1.059-3.647-1.428-5.526c-0.074-0.378-0.147-0.755-0.212-1.133c-0.451-2.653-0.691-5.379-0.691-8.161V58.323
								c0-25.836,20.429-46.993,45.979-48.181C26.857,11.331,8.501,30.425,8.501,53.718V690.53
								C8.501,713.032,25.614,731.61,47.508,733.931z"/>
							<linearGradient id="SVGID_2_" gradientUnits="userSpaceOnUse" x1="361.3774" y1="372.0736" x2="366.6761" y2="372.0736">
								<stop  offset="0" style="stop-color:#000000"/>
								<stop  offset="1" style="stop-color:#666666"/>
							</linearGradient>
							<path class="st64" d="M365.872,58.323v627.602c0,5.167-0.82,10.15-2.33,14.82c-0.111,0.359-0.23,0.719-0.359,1.068
								c-0.12,0.359-0.249,0.709-0.387,1.059c-0.092,0.267-0.194,0.534-0.304,0.792c-0.313,0.783-0.645,1.557-0.995,2.321
								c-0.157,0.341-0.313,0.682-0.479,1.013c-0.23,0.47-0.461,0.93-0.709,1.391c-0.157,0.313-0.322,0.617-0.497,0.921
								c-0.175,0.322-0.359,0.645-0.553,0.967c-0.516,0.884-1.068,1.759-1.649,2.616c-0.184,0.267-0.368,0.543-0.562,0.811
								c-0.212,0.304-0.433,0.599-0.654,0.893c-0.212,0.304-0.442,0.599-0.663,0.884c-0.23,0.295-0.461,0.58-0.691,0.866
								c-0.23,0.286-0.47,0.571-0.718,0.857c-0.479,0.562-0.967,1.115-1.474,1.649c-0.774,0.829-1.575,1.63-2.413,2.413
								c-0.249,0.221-0.497,0.451-0.755,0.682c-0.58,0.516-1.17,1.013-1.768,1.51c-0.258,0.203-0.525,0.405-0.792,0.617
								c-0.875,0.682-1.778,1.326-2.699,1.943c-0.304,0.203-0.617,0.405-0.93,0.608c-0.626,0.405-1.262,0.783-1.907,1.151
								c-0.313,0.184-0.635,0.368-0.958,0.534c-1.041,0.571-2.1,1.105-3.187,1.584c-0.285,0.138-0.571,0.258-0.857,0.378
								c-0.341,0.157-0.682,0.295-1.031,0.433c-0.35,0.138-0.7,0.276-1.05,0.405c-0.783,0.295-1.575,0.571-2.376,0.82
								c-0.285,0.092-0.562,0.175-0.847,0.258c-1.05,0.313-2.128,0.59-3.215,0.829c-0.378,0.083-0.755,0.166-1.142,0.239
								c-0.396,0.083-0.801,0.157-1.216,0.221c-0.755,0.129-1.51,0.239-2.266,0.332h-0.028c-0.387,0.046-0.774,0.083-1.161,0.12
								c21.894-2.321,39.016-20.899,39.016-43.4V53.718c0-22.898-17.73-41.733-40.186-43.502
								C346.079,11.985,365.872,32.884,365.872,58.323z"/>
							<linearGradient id="SVGID_3_" gradientUnits="userSpaceOnUse" x1="184.8837" y1="738.7664" x2="184.8837" y2="696.4451">
								<stop  offset="0" style="stop-color:#959595"/>
								<stop  offset="1" style="stop-color:#000000"/>
							</linearGradient>
							<path class="st65" d="M365.872,685.925v4.605c0,26.6-21.636,48.236-48.236,48.236H52.14c-26.6,0-48.245-21.636-48.245-48.236
								v-4.605c0,2.782,0.239,5.508,0.691,8.161c0.064,0.378,0.138,0.755,0.212,1.133c0.368,1.879,0.847,3.721,1.428,5.526
								c0.111,0.359,0.23,0.709,0.359,1.068c0.912,2.607,2.045,5.121,3.38,7.516c0.175,0.322,0.359,0.645,0.553,0.958
								c0.516,0.884,1.059,1.75,1.639,2.597c0.184,0.267,0.368,0.544,0.562,0.811c1.068,1.51,2.22,2.957,3.454,4.338
								c0.203,0.23,0.415,0.461,0.626,0.691c0.166,0.184,0.332,0.359,0.507,0.534c0.258,0.267,0.525,0.534,0.783,0.801
								c0.267,0.267,0.534,0.525,0.81,0.783c0.23,0.23,0.47,0.451,0.709,0.672c0.728,0.663,1.483,1.308,2.257,1.934
								c0.258,0.212,0.516,0.415,0.783,0.617c1.455,1.133,2.984,2.183,4.568,3.141c0.313,0.193,0.626,0.378,0.949,0.562
								c0.7,0.405,1.409,0.783,2.128,1.161c0.285,0.138,0.562,0.276,0.847,0.414c4.025,1.953,8.363,3.362,12.913,4.136
								c0.746,0.129,1.501,0.239,2.266,0.332h0.028c0.774,0.092,1.547,0.166,2.33,0.221c0.396,0.028,0.801,0.055,1.197,0.074
								c0.746,0.037,1.501,0.055,2.266,0.055h265.496c0.755,0,1.501-0.018,2.247-0.055c0.396-0.018,0.801-0.046,1.197-0.074
								c0.635-0.046,1.262-0.101,1.888-0.175c0.147-0.009,0.295-0.028,0.442-0.046h0.028c0.764-0.092,1.52-0.203,2.266-0.332
								c0.415-0.065,0.82-0.138,1.216-0.221c0.387-0.074,0.764-0.157,1.142-0.239c1.087-0.24,2.164-0.516,3.215-0.829
								c0.286-0.083,0.571-0.166,0.847-0.258c0.801-0.249,1.594-0.525,2.376-0.82c0.35-0.129,0.7-0.267,1.05-0.405
								c0.35-0.138,0.691-0.276,1.031-0.433c0.286-0.12,0.571-0.24,0.857-0.378c1.087-0.479,2.146-1.013,3.187-1.584
								c0.322-0.166,0.636-0.341,0.958-0.534c0.645-0.368,1.28-0.746,1.907-1.151c0.313-0.193,0.626-0.396,0.93-0.608
								c0.921-0.617,1.824-1.262,2.699-1.943c0.267-0.203,0.534-0.414,0.792-0.617c0.599-0.497,1.188-0.995,1.768-1.51
								c0.258-0.221,0.507-0.451,0.755-0.682c0.838-0.783,1.639-1.584,2.413-2.413c0.507-0.534,1.004-1.087,1.474-1.649
								c0.249-0.286,0.488-0.571,0.718-0.857c0.24-0.286,0.47-0.571,0.691-0.866c0.23-0.295,0.451-0.59,0.663-0.884
								c0.23-0.295,0.442-0.589,0.654-0.893c0.193-0.267,0.378-0.543,0.562-0.811c0.58-0.857,1.133-1.732,1.649-2.616
								c0.193-0.322,0.378-0.645,0.553-0.967c0.175-0.304,0.341-0.608,0.497-0.921c0.249-0.461,0.479-0.921,0.709-1.391
								c0.166-0.332,0.332-0.672,0.479-1.013c0.35-0.765,0.682-1.538,0.995-2.321c0.111-0.258,0.212-0.525,0.304-0.792
								c0.138-0.35,0.267-0.7,0.387-1.059c0.129-0.35,0.249-0.709,0.359-1.068C365.052,696.075,365.872,691.092,365.872,685.925z"/>
						</g>
						<linearGradient id="SVGID_4_" gradientUnits="userSpaceOnUse" x1="184.8837" y1="45.8891" x2="184.8837" y2="-6.9522">
							<stop  offset="0" style="stop-color:#000000"/>
							<stop  offset="1" style="stop-color:#808080"/>
						</linearGradient>
						<path class="st66" d="M365.872,53.718v4.605c0-25.044-19.177-45.685-43.621-48.006c-0.387-0.037-0.783-0.074-1.17-0.101
							c-0.396-0.028-0.801-0.055-1.197-0.074h-0.009c-0.746-0.037-1.483-0.055-2.238-0.055H52.14c-0.755,0-1.501,0.018-2.238,0.055
							h-0.028C24.324,11.331,3.895,32.488,3.895,58.323v-4.605c0-0.479,0.009-0.949,0.028-1.418c0-0.359,0.018-0.709,0.037-1.059
							c0.037-0.774,0.092-1.538,0.175-2.303c0.037-0.396,0.083-0.792,0.129-1.179c0.028-0.212,0.055-0.414,0.083-0.626
							c0.028-0.249,0.064-0.497,0.111-0.755c0.055-0.396,0.12-0.792,0.193-1.188c0.12-0.691,0.258-1.372,0.415-2.045
							c0.074-0.341,0.157-0.672,0.24-1.004c0.24-1.004,0.516-1.98,0.829-2.957c0.101-0.304,0.203-0.617,0.304-0.921
							c0.129-0.378,0.258-0.755,0.396-1.124c0.11-0.313,0.23-0.617,0.35-0.921c0.101-0.258,0.193-0.507,0.304-0.755
							c0.12-0.304,0.249-0.608,0.378-0.903c0.102-0.23,0.194-0.451,0.304-0.672c0.147-0.332,0.295-0.654,0.461-0.986
							c0.267-0.571,0.553-1.142,0.856-1.704c0.147-0.286,0.304-0.571,0.47-0.857c0.175-0.332,0.368-0.663,0.562-0.986
							c1.335-2.275,2.855-4.43,4.541-6.457c0.24-0.286,0.479-0.571,0.728-0.857c0.276-0.313,0.553-0.635,0.847-0.949
							c0.479-0.516,0.958-1.022,1.455-1.51c0.534-0.534,1.078-1.05,1.63-1.557c0.562-0.497,1.124-0.995,1.704-1.474
							c0.285-0.239,0.58-0.47,0.875-0.709c0.59-0.461,1.188-0.912,1.805-1.354c0.608-0.433,1.225-0.857,1.861-1.271
							c0.635-0.405,1.271-0.801,1.925-1.179c0.323-0.193,0.654-0.378,0.986-0.562c0.332-0.184,0.663-0.359,0.995-0.534
							c0.341-0.175,0.672-0.35,1.013-0.516c0.341-0.166,0.682-0.332,1.032-0.497c0.682-0.313,1.382-0.617,2.091-0.903
							c0.331-0.138,0.672-0.276,1.013-0.405c0.028-0.018,0.064-0.028,0.092-0.037c0.341-0.129,0.691-0.249,1.032-0.378
							c0.341-0.111,0.682-0.23,1.022-0.35c0.387-0.12,0.774-0.249,1.17-0.359c0.368-0.111,0.737-0.212,1.105-0.313
							c0.378-0.101,0.746-0.203,1.124-0.295c0.378-0.092,0.755-0.184,1.133-0.267c0.764-0.175,1.529-0.322,2.303-0.451
							c0.378-0.064,0.764-0.129,1.151-0.184c0.829-0.12,1.667-0.221,2.505-0.295c0.663-0.064,1.336-0.111,2.008-0.147
							c0.405-0.018,0.82-0.037,1.234-0.046c0.414-0.009,0.829-0.018,1.243-0.018h265.496c0.414,0,0.829,0.009,1.243,0.018
							c0.341,0.009,0.691,0.019,1.032,0.037c0.783,0.037,1.557,0.092,2.33,0.166h0.028c0.396,0.037,0.783,0.083,1.17,0.129
							c0.396,0.046,0.783,0.101,1.17,0.157c0.387,0.055,0.774,0.12,1.16,0.184c0.387,0.065,0.764,0.138,1.142,0.212
							c0.009-0.009,0.018-0.009,0.018,0c0.378,0.074,0.755,0.156,1.133,0.239c0.35,0.074,0.691,0.157,1.032,0.23
							c0.083,0.018,0.157,0.037,0.221,0.055c0.322,0.083,0.645,0.166,0.967,0.258c0.451,0.12,0.903,0.249,1.345,0.387
							c0.304,0.092,0.608,0.184,0.903,0.285c0.672,0.221,1.336,0.451,1.999,0.7c0.451,0.156,0.893,0.332,1.326,0.516
							c0.322,0.129,0.636,0.267,0.958,0.405c0.35,0.147,0.691,0.304,1.041,0.47c0.341,0.156,0.682,0.322,1.022,0.488
							c2.432,1.188,4.734,2.579,6.908,4.154c0.267,0.184,0.534,0.378,0.792,0.58c0.958,0.718,1.879,1.464,2.772,2.247
							c0.396,0.341,0.783,0.691,1.161,1.05c1.557,1.446,3.012,2.993,4.347,4.624c0.249,0.295,0.479,0.58,0.709,0.875
							c0.488,0.617,0.949,1.234,1.391,1.861c0.23,0.313,0.451,0.635,0.663,0.958c0.378,0.543,0.737,1.105,1.087,1.667
							c0.175,0.286,0.341,0.571,0.516,0.857c0.313,0.544,0.626,1.087,0.921,1.649c0.147,0.267,0.295,0.534,0.424,0.811
							c0.488,0.93,0.93,1.87,1.354,2.837c0.101,0.249,0.212,0.497,0.313,0.755c0.396,0.958,0.765,1.934,1.096,2.92
							c0.129,0.368,0.249,0.728,0.359,1.096c0.663,2.118,1.179,4.292,1.547,6.512c0.037,0.23,0.074,0.47,0.111,0.718
							c0.055,0.387,0.111,0.774,0.157,1.16c0.046,0.396,0.092,0.783,0.129,1.179c0.046,0.396,0.074,0.792,0.111,1.188
							c0.046,0.728,0.083,1.455,0.101,2.192C365.863,52.779,365.872,53.248,365.872,53.718z"/>
					</g>
					<g>
						<path d="M319.884,10.143h-0.009c-0.737-0.037-1.483-0.055-2.238-0.055H52.14c-0.755,0-1.501,0.018-2.238,0.055h-0.028
							C26.857,11.331,8.501,30.425,8.501,53.718V690.53c0,22.898,17.721,41.733,40.177,43.502c0.396,0.028,0.801,0.055,1.197,0.074
							c0.746,0.037,1.501,0.055,2.266,0.055h265.496c0.755,0,1.501-0.018,2.247-0.055c0.396-0.018,0.801-0.046,1.197-0.074
							c22.455-1.768,40.186-20.604,40.186-43.502V53.718C361.267,30.415,342.901,11.322,319.884,10.143z M357.583,690.53
							c0,20.705-16.165,38.206-36.759,39.827c-0.368,0.028-0.746,0.055-1.124,0.065c-0.682,0.037-1.372,0.055-2.063,0.055H52.14
							c-0.7,0-1.4-0.018-2.091-0.055c-0.368-0.009-0.746-0.037-1.087-0.065c-20.623-1.621-36.778-19.121-36.778-39.827V53.718
							c0-21.24,16.588-38.749,37.791-39.891h0.018l0.092-0.009c0.672-0.028,1.363-0.046,2.054-0.046h265.496
							c0.691,0,1.382,0.018,2.054,0.046l0.064,0.009c21.221,1.115,37.828,18.633,37.828,39.891V690.53z"/>
					</g>
					<linearGradient id="SVGID_5_" gradientUnits="userSpaceOnUse" x1="344.7062" y1="372.3131" x2="357.5734" y2="372.3131">
						<stop  offset="0" style="stop-color:#F1F1F1"/>
						<stop  offset="0.0012" style="stop-color:#F0F0F0"/>
						<stop  offset="0.1385" style="stop-color:#B7B7B7"/>
						<stop  offset="0.2715" style="stop-color:#888888"/>
						<stop  offset="0.397" style="stop-color:#636363"/>
						<stop  offset="0.5134" style="stop-color:#494949"/>
						<stop  offset="0.6172" style="stop-color:#393939"/>
						<stop  offset="0.6978" style="stop-color:#333333"/>
					</linearGradient>
					<path class="st67" d="M357.573,53.976v636.812c0,3.942-0.589,7.774-1.676,11.393c-0.875,2.892-2.063,5.655-3.546,8.243
						c-0.304,0.534-0.626,1.059-0.949,1.575c-0.497,0.774-1.013,1.529-1.547,2.266c-1.529,2.082-3.251,4.007-5.139,5.766
						c3.491-6.098,5.49-13.171,5.49-20.65v-7.341c0.018-0.433,0.028-0.875,0.028-1.317V53.912c0-0.451-0.009-0.903-0.028-1.345
						v-7.184c0-7.571-1.999-14.682-5.499-20.788C352.637,31.907,357.573,42.389,357.573,53.976z"/>
					<g>
						<path d="M319.561,17.506l-0.17-0.014c-0.577-0.022-1.166-0.037-1.755-0.037H52.14c-0.604,0-1.207,0.015-1.796,0.039
							l-0.181,0.017h-0.086C30.887,18.594,15.869,34.48,15.869,53.718v636.813c0,18.802,14.663,34.682,33.395,36.154
							c0.275,0.023,0.579,0.046,0.876,0.053l0.106,0.005c0.626,0.033,1.26,0.05,1.894,0.05h265.496c0.624,0,1.249-0.017,1.865-0.05
							l0.111-0.005c0.314-0.007,0.627-0.031,0.922-0.054c18.709-1.472,33.364-17.354,33.364-36.153V53.718
							C353.898,34.424,338.816,18.517,319.561,17.506z M344.227,690.531c0,13.788-10.74,25.433-24.45,26.512
							c-0.127,0.01-0.26,0.023-0.389,0.027l-0.083,0.002l-0.083,0.003l-0.111,0.004l-0.065,0.003l-0.065,0.003
							c-0.445,0.024-0.897,0.036-1.343,0.036H52.14c-0.458,0-0.923-0.012-1.381-0.037l-0.052-0.003l-0.052-0.002l-0.106-0.005
							l-0.077-0.003l-0.086-0.002c-0.114-0.004-0.229-0.015-0.363-0.026c-13.728-1.079-24.482-12.725-24.482-26.513V53.718
							c0-14.011,10.886-25.619,24.832-26.536h0.237l0.36-0.033c0.427-0.015,0.812-0.022,1.171-0.022h265.496
							c0.359,0,0.752,0.007,1.195,0.023l0.094,0.007l0.129,0.007c14.116,0.741,25.173,12.405,25.173,26.554V690.531z"/>
						<path d="M275.148,27.127v3.472c0,11.688-9.478,21.166-21.166,21.166H115.786c-11.688,0-21.166-9.478-21.166-21.166v-3.472
							H275.148z"/>
					</g>
					<path d="M275.148,27.132v3.472c0,11.688-9.478,21.166-21.166,21.166H115.786c-11.688,0-21.166-9.478-21.166-21.166v-3.472
						H275.148z"/>
					<g>
						<linearGradient id="SVGID_6_" gradientUnits="userSpaceOnUse" x1="19.5717" y1="710.697" x2="350.2049" y2="710.697">
							<stop  offset="0" style="stop-color:#1A1A1A"/>
							<stop  offset="0.1173" style="stop-color:#454545"/>
							<stop  offset="0.2314" style="stop-color:#666666"/>
							<stop  offset="0.3395" style="stop-color:#7E7E7E"/>
							<stop  offset="0.4393" style="stop-color:#8D8D8D"/>
							<stop  offset="0.5229" style="stop-color:#929292"/>
							<stop  offset="0.5926" style="stop-color:#8B8B8B"/>
							<stop  offset="0.6974" style="stop-color:#767676"/>
							<stop  offset="0.8246" style="stop-color:#545454"/>
							<stop  offset="0.968" style="stop-color:#252525"/>
							<stop  offset="1" style="stop-color:#1A1A1A"/>
						</linearGradient>
						<path class="st68" d="M350.205,692.041v7.341c0,7.479-1.999,14.553-5.49,20.65c-6.383,5.913-14.691,9.791-23.874,10.518
							c-0.368,0.028-0.746,0.055-1.124,0.064c-0.682,0.037-1.372,0.055-2.063,0.055H52.159c-0.7,0-1.4-0.018-2.091-0.055
							c-0.368-0.009-0.746-0.037-1.087-0.064c-0.507-0.037-1.013-0.092-1.52-0.157c-8.584-1.004-16.33-4.771-22.354-10.353
							c-3.518-6.116-5.536-13.217-5.536-20.724v-8.594c0,9.809,4.449,18.744,11.467,24.749c5.066,4.347,11.476,7.175,18.522,7.728
							c0.23,0.018,0.461,0.046,0.691,0.046l0.101,0.009h0.101c0.562,0.028,1.133,0.046,1.704,0.046h265.496
							c0.553,0,1.114-0.018,1.667-0.046h0.111l0.101-0.009c0.258,0,0.507-0.028,0.755-0.046
							C336.629,721.92,349.542,708.353,350.205,692.041z"/>
						<linearGradient id="SVGID_7_" gradientUnits="userSpaceOnUse" x1="19.5717" y1="33.9706" x2="357.6011" y2="33.9706">
							<stop  offset="0" style="stop-color:#1A1A1A"/>
							<stop  offset="0.1173" style="stop-color:#454545"/>
							<stop  offset="0.2314" style="stop-color:#666666"/>
							<stop  offset="0.3395" style="stop-color:#7E7E7E"/>
							<stop  offset="0.4393" style="stop-color:#8D8D8D"/>
							<stop  offset="0.5229" style="stop-color:#929292"/>
							<stop  offset="0.5926" style="stop-color:#8B8B8B"/>
							<stop  offset="0.6974" style="stop-color:#767676"/>
							<stop  offset="0.8246" style="stop-color:#545454"/>
							<stop  offset="0.968" style="stop-color:#252525"/>
							<stop  offset="1" style="stop-color:#1A1A1A"/>
						</linearGradient>
						<path class="st69" d="M357.573,53.976l0.028-0.065c0-21.258-16.607-38.777-37.828-39.891l-0.065-0.009
							c-0.672-0.028-1.363-0.046-2.054-0.046H52.159c-0.691,0-1.382,0.018-2.054,0.046l-0.092,0.009h-0.019
							c-0.866,0.046-1.713,0.12-2.56,0.221c-8.612,1.013-16.349,4.743-22.363,10.288c-3.5,6.107-5.499,13.217-5.499,20.788v8.593
							c0-9.892,4.421-18.799,11.44-24.795c5.213-4.449,11.854-7.295,19.195-7.728h0.175l0.239-0.028
							c0.562-0.018,1.069-0.028,1.538-0.028h265.496c0.424,0,0.884,0.009,1.391,0.028h0.009l0.332,0.018
							c16.846,0.884,30.137,14.461,30.819,31.187v-7.184c0-7.571-1.999-14.682-5.499-20.788
							C352.637,31.907,357.573,42.389,357.573,53.976z"/>
						<linearGradient id="SVGID_8_" gradientUnits="userSpaceOnUse" x1="12.1848" y1="372.092" x2="19.8187" y2="372.092">
							<stop  offset="0" style="stop-color:#C8C8C8"/>
							<stop  offset="0.2107" style="stop-color:#A0A0A0"/>
							<stop  offset="0.5867" style="stop-color:#5D5D5D"/>
							<stop  offset="0.8599" style="stop-color:#343434"/>
							<stop  offset="1" style="stop-color:#242424"/>
						</linearGradient>
						<path class="st70" d="M25.089,719.848c-7.94-7.35-12.904-17.841-12.904-29.317V53.718c0-11.587,4.937-22.069,12.867-29.382
							c-3.5,6.107-5.499,13.217-5.499,20.788v653.999C19.553,706.63,21.57,713.732,25.089,719.848z"/>
						<linearGradient id="SVGID_9_" gradientUnits="userSpaceOnUse" x1="344.6693" y1="372.3499" x2="357.5734" y2="372.3499">
							<stop  offset="0" style="stop-color:#242424"/>
							<stop  offset="0.1401" style="stop-color:#343434"/>
							<stop  offset="0.4133" style="stop-color:#5D5D5D"/>
							<stop  offset="0.7893" style="stop-color:#A0A0A0"/>
							<stop  offset="1" style="stop-color:#C8C8C8"/>
						</linearGradient>
						<path class="st71" d="M357.573,53.976v636.812c0,3.942-0.589,7.774-1.676,11.393c-0.875,2.892-2.063,5.655-3.546,8.243
							c-0.304,0.534-0.626,1.059-0.949,1.575c-0.479,0.774-0.995,1.529-1.547,2.266c-1.529,2.109-3.27,4.071-5.186,5.84
							c0.019-0.028,0.028-0.046,0.046-0.074c3.491-6.098,5.49-13.171,5.49-20.65V45.383c0-7.571-1.999-14.682-5.499-20.788
							C352.637,31.907,357.573,42.389,357.573,53.976z"/>
					</g>
				</g>
				<g>
					<linearGradient id="SVGID_10_" gradientUnits="userSpaceOnUse" x1="162.5848" y1="32.2133" x2="204.9536" y2="32.2133">
						<stop  offset="0" style="stop-color:#333333"/>
						<stop  offset="0.0901" style="stop-color:#2B2B2B"/>
						<stop  offset="0.2885" style="stop-color:#1E1E1E"/>
						<stop  offset="0.4787" style="stop-color:#1A1A1A"/>
						<stop  offset="0.7885" style="stop-color:#1C1C1C"/>
						<stop  offset="0.8999" style="stop-color:#232323"/>
						<stop  offset="0.9792" style="stop-color:#2E2E2E"/>
						<stop  offset="1" style="stop-color:#333333"/>
					</linearGradient>
					<path class="st72" d="M203.183,34.439h-38.827c-0.978,0-1.771-0.793-1.771-1.771v-0.91c0-0.978,0.793-1.771,1.771-1.771h38.827
						c0.978,0,1.771,0.793,1.771,1.771v0.91C204.954,33.646,204.161,34.439,203.183,34.439z"/>
				</g>
			</g>
			<g>
				<defs>
					<path id="SVGID_11_" d="M319.395,27.187h-0.24l-0.359-0.037c-0.424-0.018-0.811-0.018-1.17-0.018H279.32
						c-2.192,0.111-3.961,1.805-4.182,3.97c-0.009,0.147-0.018,0.295-0.018,0.451v0.055c-0.525,11.228-9.791,20.162-21.138,20.162
						h-65.395h-7.405h-65.395c-11.347,0-20.613-8.934-21.138-20.162v-0.055c0-0.157-0.009-0.304-0.018-0.451
						c-0.221-2.164-1.99-3.859-4.182-3.97H52.141c-0.359,0-0.746,0-1.17,0.018l-0.359,0.037h-0.24
						C36.427,28.099,25.54,39.704,25.54,53.723v636.812c0,13.779,10.758,25.43,24.482,26.508c0.138,0.009,0.249,0.018,0.359,0.028
						h0.092l0.074,0.009h0.157l0.055,0.009c0.46,0.018,0.921,0.037,1.382,0.037h129.04h7.405h129.04
						c0.461,0,0.921-0.018,1.382-0.037l0.055-0.009h0.157l0.074-0.009h0.092c0.11-0.009,0.221-0.018,0.359-0.028
						c13.724-1.078,24.482-12.729,24.482-26.508V53.723C344.227,39.704,333.34,28.099,319.395,27.187z"/>
				</defs>
				<clipPath id="SVGID_12_">
					<use xlink:href="#SVGID_11_"  style="overflow:visible;"/>
				</clipPath>
			</g>
			<g>
				<defs>
					<path id="SVGID_13_" d="M319.393,27.137h-0.24l-0.359-0.037c-0.424-0.018-0.811-0.018-1.17-0.018h-38.309
						c-2.192,0.111-3.961,1.805-4.182,3.97c-0.009,0.147-0.018,0.295-0.018,0.451v0.055c-0.525,11.228-9.791,20.163-21.139,20.163
						h-65.399h-7.406h-65.399c-11.348,0-20.614-8.935-21.139-20.163v-0.055c0-0.157-0.009-0.304-0.018-0.451
						c-0.221-2.165-1.99-3.86-4.182-3.97H52.123c-0.359,0-0.746,0-1.17,0.018l-0.359,0.037h-0.239
						c-13.945,0.912-24.833,12.518-24.833,26.537v636.847c0,13.78,10.759,25.432,24.483,26.509c0.138,0.009,0.249,0.018,0.359,0.028
						h0.092l0.074,0.009h0.157l0.055,0.009c0.461,0.018,0.921,0.037,1.382,0.037h129.048h7.406h129.047
						c0.46,0,0.921-0.018,1.382-0.037l0.055-0.009h0.157l0.074-0.009h0.092c0.11-0.009,0.221-0.018,0.359-0.028
						c13.725-1.078,24.483-12.73,24.483-26.509V53.674C344.226,39.655,333.338,28.049,319.393,27.137z"/>
				</defs>
				<linearGradient id="SVGID_14_" gradientUnits="userSpaceOnUse" x1="-59.5067" y1="127.6854" x2="429.2539" y2="616.446">
					<stop  offset="0" style="stop-color:#F2F3F4"/>
					<stop  offset="0.4788" style="stop-color:#EDEEEF"/>
					<stop  offset="1" style="stop-color:#E2E2E2"/>
				</linearGradient>
				<use xlink:href="#SVGID_13_"  style="overflow:visible;fill:url(#SVGID_14_);"/>
				<clipPath id="SVGID_15_">
					<use xlink:href="#SVGID_13_"  style="overflow:visible;"/>
				</clipPath>
			</g>
		</g>
	</g>
</g>
</svg>
